<?xml version="1.0" encoding="utf-8"?>
<!-- Generator: Adobe Illustrator 19.1.0, SVG Export Plug-In . SVG Version: 6.00 Build 0)  -->
<svg version="1.1" id="Layer_1" xmlns="http://www.w3.org/2000/svg" xmlns:xlink="http://www.w3.org/1999/xlink" x="0px" y="0px"
	 viewBox="0 0 64 64" enable-background="new 0 0 64 64" xml:space="preserve">
<g id="Contact-book">
	<path d="M45.0019989,38.9902992c-0.4473-0.8388977-1.1933975-1.4540977-2.1016006-1.732399
		c-0.9091988-0.2764015-1.872097-0.1846008-2.7118988,0.2625999c-0.6777,0.3583984-1.455101,0.4346008-2.1875,0.211998
		c-0.7226982-0.2216988-1.3408012-0.7314987-1.6963005-1.3984985l-4.4989986-8.4608994
		c-0.3653011-0.6865005-0.4414005-1.4736004-0.2138996-2.2168007C31.8194008,24.9130993,32.3223,24.3027992,33.0098,23.9375
		c1.7128983-0.9120998,2.3652-3.0478001,1.455101-4.7607002l-1.6006012-3.0098
		c-0.4306984-0.8094997-1.1504002-1.4022999-2.0263996-1.6708994c-0.8789005-0.2666006-1.8076-0.1777-2.6123009,0.2519999
		l-0.8593998,0.4551001c-1.5487995,0.8261003-2.8125,2.1542997-3.5565987,3.7421999
		c-1.2070007,2.5760994-1.1309013,5.6131992,0.2040997,8.1240005l8.5781002,16.1298981
		c1.3388977,2.5175018,3.8223,4.2831993,6.6415977,4.7226028c0.410202,0.0634995,0.8241997,0.0956993,1.2392998,0.0956993
		c1.3261032,0,2.6513023-0.3251991,3.8261032-0.9491997l0.8671989-0.4609032
		c0.8096008-0.4306984,1.402401-1.1503983,1.6699982-2.0273972c0.2685013-0.8759995,0.1787033-1.8036995-0.2519989-2.6123009
		L45.0019989,38.9902992z M44.9238014,43.9961014c-0.1123009,0.3652992-0.3593025,0.6660004-0.6943016,0.8437996
		l-0.8690987,0.4628983c-1.1631012,0.6171989-2.5186005,0.847599-3.8203011,0.642601
		C37.339901,45.6026001,35.402401,44.2246017,34.357399,42.2598l-8.5780983-16.1299
		c-1.0410004-1.9580002-1.1006012-4.3260994-0.1592007-6.3358994c0.5625-1.1983013,1.5165997-2.2012005,2.6846008-2.8241997
		l0.8593998-0.455101c0.2089996-0.1123009,0.4375-0.1690006,0.6688995-0.1690006
		c0.1406002,0,0.2812996,0.0215015,0.419899,0.0635014c0.3653011,0.1112995,0.6661015,0.3593998,0.8448009,0.6962986
		l1.6014996,3.0108013c0.392601,0.7391987,0.1104012,1.6620998-0.6307983,2.0555992
		c-1.1573009,0.6152-2.0069008,1.6455002-2.3897018,2.9004002c-0.3827991,1.2539005-0.2549,2.5830002,0.3614006,3.7402
		l4.4990005,8.4620018c0.6123009,1.1473999,1.6328011,1.9891968,2.8778992,2.3709984
		c1.2461014,0.3779984,2.5615005,0.2509995,3.7118988-0.360302c0.7598-0.4052963,1.7041016-0.1132965,2.1074028,0.6445007
		l1.5820999,2.9756012c0,0.0009995,0,0.0009995,0,0.0009995C44.9981003,43.2431984,45.0351982,43.6309013,44.9238014,43.9961014z"/>
	<path d="M52.8067017,0H15.6934004C12.6913996,0,10.25,2.4805,10.25,5.5293002V19h-3.5c-0.5527,0-1,0.4473-1,1
		c0,0.5527992,0.4473,1,1,1h3.5v21h-3.5c-0.5527,0-1,0.4473-1,1c0,0.5527992,0.4473,1,1,1h3.5v14.4706993
		C10.25,61.5195999,12.6913996,64,15.6934004,64h37.1133003C55.8086014,64,58.25,61.5195999,58.25,58.4706993V5.5293002
		C58.25,2.4805,55.8086014,0,52.8067017,0z M56.25,58.4706993C56.25,60.4169998,54.705101,62,52.8067017,62H15.6934004
		C13.7948999,62,12.25,60.4169998,12.25,58.4706993V44h3.5c0.5527,0,1-0.4472008,1-1c0-0.5527-0.4473-1-1-1h-3.5V21h3.5
		c0.5527,0,1-0.4472008,1-1c0-0.5527-0.4473-1-1-1h-3.5V5.5293002C12.25,3.5829999,13.7948999,2,15.6934004,2h37.1133003
		C54.705101,2,56.25,3.5829999,56.25,5.5293002V58.4706993z"/>
</g>
<g>
</g>
<g>
</g>
<g>
</g>
<g>
</g>
<g>
</g>
<g>
</g>
<g>
</g>
<g>
</g>
<g>
</g>
<g>
</g>
<g>
</g>
<g>
</g>
<g>
</g>
<g>
</g>
<g>
</g>
</svg>
