<?xml version="1.0" encoding="utf-8"?>
<!-- Generator: Adobe Illustrator 19.1.0, SVG Export Plug-In . SVG Version: 6.00 Build 0)  -->
<svg version="1.1" id="Layer_1" xmlns="http://www.w3.org/2000/svg" xmlns:xlink="http://www.w3.org/1999/xlink" x="0px" y="0px"
	 viewBox="0 0 64 64" enable-background="new 0 0 64 64" xml:space="preserve">
<g id="Browser-favorites">
	<path d="M25.0956993,39.8096008L24.2402,46.8065987c-0.0429993,0.3487015,0.1074009,0.6944008,0.392601,0.9014015
		c0.1679993,0.1221008,0.3680992,0.1846008,0.5692997,0.1846008c0.1386986,0,0.2793121-0.0293007,0.4091988-0.089901L32,44.8261986
		L38.3895988,47.8027c0.3194008,0.1474991,0.6944008,0.1114006,0.9785004-0.0946999
		c0.285202-0.2070007,0.4356003-0.5527,0.392601-0.9023018l-0.8563995-6.9960976l4.8046989-5.157299
		c0.1669006-0.1787033,0.2597008-0.4150009,0.2597008-0.6601028c0-0.7987976,0-0.7987976-4.4648018-1.6689987L36.2666016,31.6924
		l-3.4190025-6.1620998C32.6767006,25.2217007,32.3525009,25.0312004,32,25.0312004
		c-0.3525887,0-0.6767998,0.1905003-0.8477001,0.4990997L27.7334118,31.6924l-6.9190006,1.3486004
		c-0.3457108,0.0673981-0.6269112,0.3163986-0.736311,0.6514015c-0.1084003,0.3348999-0.0272999,0.7030983,0.2129002,0.9598999
		L25.0956993,39.8096008z M28.5468006,33.5088005c0.2803001-0.0546989,0.5234985-0.2304993,0.662199-0.4814987L32,27.9971008
		l2.7900009,5.030201c0.1386986,0.2509995,0.3817978,0.4267998,0.6620979,0.4814987c0,0,3.4756012,0.6767006,5.6485023,1.1006012
		l-3.9219017,4.2098999c-0.1952858,0.2089996-0.2881012,0.4941978-0.2528992,0.7783966L37.625,45.3075981l-5.2158012-2.4296989
		C32.2793007,42.8184013,32.1395988,42.7881012,32,42.7881012c-0.1396999,0-0.2793007,0.0303001-0.4092007,0.089798
		l-5.2148991,2.4296989l0.6982994-5.7108994c0.0351009-0.2831993-0.0576-0.5683975-0.2528992-0.7773972l-3.9218884-4.2098999
		L28.5468006,33.5088005z"/>
	<path d="M60,5h-56C1.7908008,5,0.0000008,6.7908001,0.0000008,9v5v2v39c0,2.2090988,1.7908,4,3.9999998,4h56
		c2.2090988,0,4-1.7909012,4-4V16v-2V9C64,6.7908001,62.2090988,5,60,5z M62,55c0,1.1027985-0.8972015,2-2,2h-56
		c-1.1027997,0-1.9999998-0.8972015-1.9999998-2V16h60V55z M62,14h-60V9c0-1.1027999,0.8972001-2,1.9999998-2h56
		c1.1027985,0,2,0.8972001,2,2V14z"/>
	<path d="M6.0000005,9c-0.9649997,0-1.75,0.7849998-1.75,1.75c0,0.9649,0.7850003,1.75,1.75,1.75c0.9649,0,1.75-0.7851,1.75-1.75
		C7.7500005,9.7849998,6.9649005,9,6.0000005,9z M6.0000005,11.5c-0.4141998,0-0.75-0.3358002-0.75-0.75s0.3358002-0.75,0.75-0.75
		c0.4142003,0,0.75,0.3358002,0.75,0.75S6.4142008,11.5,6.0000005,11.5z"/>
	<path d="M16,9c-0.9649992,0-1.75,0.7849998-1.75,1.75c0,0.9649,0.7850008,1.75,1.75,1.75c0.964901,0,1.75-0.7851,1.75-1.75
		C17.75,9.7849998,16.964901,9,16,9z M16,11.5c-0.4141998,0-0.75-0.3358002-0.75-0.75S15.5858002,10,16,10s0.75,0.3358002,0.75,0.75
		S16.4141998,11.5,16,11.5z"/>
	<path d="M11.000001,9c-0.9650002,0-1.75,0.7849998-1.75,1.75c0,0.9649,0.7849998,1.75,1.75,1.75c0.9649,0,1.75-0.7851,1.75-1.75
		C12.750001,9.7849998,11.964901,9,11.000001,9z M11.000001,11.5c-0.4142008,0-0.75-0.3358002-0.75-0.75s0.3357992-0.75,0.75-0.75
		c0.4141998,0,0.75,0.3358002,0.75,0.75S11.4142008,11.5,11.000001,11.5z"/>
</g>
<g>
</g>
<g>
</g>
<g>
</g>
<g>
</g>
<g>
</g>
<g>
</g>
<g>
</g>
<g>
</g>
<g>
</g>
<g>
</g>
<g>
</g>
<g>
</g>
<g>
</g>
<g>
</g>
<g>
</g>
</svg>
