<?xml version="1.0" encoding="utf-8"?>
<!-- Generator: Adobe Illustrator 19.1.0, SVG Export Plug-In . SVG Version: 6.00 Build 0)  -->
<svg version="1.1" id="Layer_1" xmlns="http://www.w3.org/2000/svg" xmlns:xlink="http://www.w3.org/1999/xlink" x="0px" y="0px"
	 viewBox="0 0 64 64" enable-background="new 0 0 64 64" xml:space="preserve">
<g id="Browser-dependency">
	<path d="M60,5h-56C1.7909007,5,0.0000008,6.7908001,0.0000008,9v5v2v39c0,2.2090988,1.7908999,4,3.9999998,4h56
		c2.2092133,0,4-1.7909012,4-4V16v-2V9C64,6.7908001,62.2092133,5,60,5z M62,55c0,1.1027985-0.8972015,2-2,2h-56
		c-1.1027856,0-1.9999998-0.8972015-1.9999998-2V16h60V55z M62,14h-60V9c0-1.1027999,0.8972142-2,1.9999998-2h56
		c1.1027985,0,2,0.8972001,2,2V14z"/>
	<path d="M6.0000005,9c-0.9649,0-1.75,0.7849998-1.75,1.75c0,0.9649,0.7851,1.75,1.75,1.75c0.9650002,0,1.75-0.7851,1.75-1.75
		C7.7500005,9.7849998,6.9650006,9,6.0000005,9z M6.0000005,11.5c-0.4141998,0-0.75-0.3358002-0.75-0.75s0.3358002-0.75,0.75-0.75
		c0.4142146,0,0.75,0.3358002,0.75,0.75S6.4142151,11.5,6.0000005,11.5z"/>
	<path d="M16,9c-0.9649,0-1.75,0.7849998-1.75,1.75c0,0.9649,0.7851,1.75,1.75,1.75c0.9650002,0,1.75-0.7851,1.75-1.75
		C17.75,9.7849998,16.9650002,9,16,9z M16,11.5c-0.4141998,0-0.75-0.3358002-0.75-0.75S15.5858002,10,16,10
		c0.4142151,0,0.75,0.3358002,0.75,0.75S16.4142151,11.5,16,11.5z"/>
	<path d="M11.000001,9c-0.9649,0-1.75,0.7849998-1.75,1.75c0,0.9649,0.7851,1.75,1.75,1.75c0.9649992,0,1.75-0.7851,1.75-1.75
		C12.750001,9.7849998,11.9650002,9,11.000001,9z M11.000001,11.5c-0.4142008,0-0.75-0.3358002-0.75-0.75s0.3357992-0.75,0.75-0.75
		c0.4142141,0,0.75,0.3358002,0.75,0.75S11.4142151,11.5,11.000001,11.5z"/>
	<path d="M16,42c0.8458996,0,1.6112995-0.3124008,2.2164001-0.8119011l5.399601,4.7677994
		c-0.2266006,0.463501-0.3651009,0.9776001-0.3651009,1.5284004c0,1.9328995,1.5669994,3.5,3.5,3.5s3.5-1.5671005,3.5-3.5
		c0-0.9897003-0.4144001-1.8792992-1.0746861-2.5158997l3.2428875-7.0270004C32.6090012,37.9733009,32.8009987,38,33,38
		c1.9329987,0,3.5-1.5670013,3.5-3.5c0-0.0649986-0.0155983-0.1255989-0.0191002-0.1898003l7.2966003-3.1271992
		C44.3834,31.6856003,45.1512146,32,46,32c1.9329987,0,3.5-1.5669994,3.5-3.5S47.9329987,25,46,25s-3.5,1.5669994-3.5,3.5
		c0,0.3453007,0.0654984,0.6721992,0.1585999,0.9873009l-6.8540001,2.9375992C35.1669006,31.5648003,34.1529999,31,33,31
		c-1.9330006,0-3.5,1.5670013-3.5,3.5c0,1.0127983,0.4367008,1.9174995,1.1243,2.5565987l-3.2269993,6.9928017
		c-0.210001-0.039299-0.4250011-0.0651016-0.6464005-0.0651016c-0.6522007,0-1.2551994,0.1900024-1.7779007,0.5006027
		l-5.4817848-4.8404007c-0.0507145-0.0447006-0.112114-0.0644989-0.1684151-0.0972023
		C19.4278011,39.2145996,19.5,38.8674011,19.5,38.5c0-1.9329987-1.5669994-3.5-3.5-3.5s-3.499999,1.5670013-3.499999,3.5
		S14.0670004,42,16,42z M46,27c0.8270988,0,1.5,0.6728992,1.5,1.5S46.8270988,30,46,30s-1.5-0.6728992-1.5-1.5S45.1729012,27,46,27z
		 M33,33c0.8270988,0,1.5,0.6729012,1.5,1.5S33.8270988,36,33,36s-1.5-0.6729012-1.5-1.5S32.1729012,33,33,33z
		 M26.7509003,45.9842987c0.8271008,0,1.5,0.6729012,1.5,1.5c0,0.8269997-0.6728992,1.5-1.5,1.5s-1.5-0.6730003-1.5-1.5
		C25.2509003,46.6571999,25.9237995,45.9842987,26.7509003,45.9842987z M16,37c0.8271008,0,1.5,0.6729012,1.5,1.5
		S16.8271008,40,16,40c-0.8270998,0-1.5-0.6729012-1.5-1.5S15.1729002,37,16,37z"/>
</g>
<g>
</g>
<g>
</g>
<g>
</g>
<g>
</g>
<g>
</g>
<g>
</g>
<g>
</g>
<g>
</g>
<g>
</g>
<g>
</g>
<g>
</g>
<g>
</g>
<g>
</g>
<g>
</g>
<g>
</g>
</svg>
