<?xml version="1.0" encoding="utf-8"?>
<!-- Generator: Adobe Illustrator 19.1.0, SVG Export Plug-In . SVG Version: 6.00 Build 0)  -->
<svg version="1.1" id="Layer_1" xmlns="http://www.w3.org/2000/svg" xmlns:xlink="http://www.w3.org/1999/xlink" x="0px" y="0px"
	 viewBox="0 0 64 64" enable-background="new 0 0 64 64" xml:space="preserve">
<g id="Browser-settings">
	<path d="M21.8003407,39.0038986c0.2523994,0.0419998,0.5058002,0.0820007,0.724617,0.1172028
		c0.1703835,0.5341988,0.3852825,1.0527,0.6425838,1.5516968l-0.4278011,0.580101
		c-0.7733994,1.0508003-0.6849995,2.5,0.2476006,3.4854012l0.424799,0.4131012
		c0.9463005,0.8905983,2.3910999,0.9785004,3.424818,0.214798c0.2074833-0.1483994,0.4154835-0.2987976,0.594183-0.4286995
		c0.4990997,0.2578011,1.0186005,0.4726982,1.5528183,0.6436005l0.1083813,0.714798
		c0.1968002,1.2881012,1.2842007,2.2490005,2.6343002,2.2871017l0.5936985-0.0088005
		c1.2988014-0.0381012,2.3828011-0.9961014,2.5772018-2.2685013c0.0419006-0.2519989,0.0820007-0.5058975,0.1161995-0.7245979
		c0.535099-0.170002,1.0536995-0.3848,1.5527-0.642601l0.5811005,0.4286995
		c1.0507011,0.7714996,2.4980011,0.6846008,3.4852982-0.2490005l0.4111176-0.4247971
		C41.9336395,43.75,42.022541,42.3056984,41.2607422,41.267601c-0.1494026-0.2070999-0.2997818-0.4141006-0.4297028-0.5928001
		c0.2579193-0.4990005,0.4737015-1.017601,0.6436005-1.5527l0.7139015-0.1094017
		c1.2880974-0.1952972,2.25-1.2821999,2.2880974-2.6327972l-0.0087967-0.5938034
		c-0.0362015-1.2987976-0.9951019-2.3837967-2.2695999-2.5790977c-0.2519035-0.0410004-0.5048027-0.0810013-0.7236023-0.1152
		c-0.169899-0.5342026-0.3848-1.0536995-0.642601-1.5517998l0.4287033-0.5820007
		c0.7724991-1.0498009,0.6835976-2.5-0.2461014-3.4813995L40.5889587,27.0625
		c-0.9434166-0.8896999-2.3897171-0.9804993-3.4268188-0.2168007c-0.2070007,0.1484013-0.4150009,0.2988014-0.5937004,0.4287014
		c-0.4981003-0.2568016-1.0175972-0.4726009-1.5527992-0.642601l-0.1083984-0.7147999
		c-0.1962814-1.2891006-1.2842026-2.2509995-2.6289024-2.2870998l-0.5990982,0.0077991
		c-1.2982826,0.0381012-2.3832817,0.9971008-2.5776005,2.2695007c-0.0415001,0.2520008-0.0816002,0.5049-0.1158009,0.7236996
		c-0.535099,0.1709003-1.0541992,0.3857002-1.5521984,0.6424999l-0.5816002-0.4286995
		c-1.0488014-0.7714996-2.4995003-0.6835995-3.4834003,0.2481003l-0.4125996,0.424799
		c-0.8910828,0.9453011-0.9790001,2.3896008-0.216301,3.4267006c0.1490002,0.2070999,0.2994003,0.4141006,0.4292183,0.5928001
		c-0.2578182,0.5000019-0.4731178,1.0185986-0.6429996,1.5537014l-0.7149181,0.1083984
		c-1.2884998,0.1953011-2.2504997,1.2831993-2.2875996,2.6309013l0.0088005,0.5966988
		C19.56884,37.7246017,20.5273418,38.8096008,21.8003407,39.0038986z M22.1123409,35.1758003l1.349617-0.2041016
		c0.4013824-0.0606003,0.7260838-0.357399,0.8222828-0.7519989c0.1928005-0.7871017,0.5044003-1.5400009,0.9262009-2.2362995
		c0.2095165-0.3457012,0.1899986-0.7832012-0.0493011-1.1093998c0,0-0.4037991-0.5498009-0.8036995-1.1064014
		c-0.1968002-0.2665997-0.1737995-0.6357994,0.0492992-0.8730984L24.778841,28.5098
		c0.2432003-0.2294998,0.6171989-0.2520008,0.8866997-0.0547009l1.1011009,0.8115005
		c0.3266983,0.2392998,0.7645988,0.2588005,1.1113167,0.0498009c0.6933823-0.4209003,1.4457817-0.7324009,2.2363815-0.9258003
		c0.3935013-0.0967007,0.6899014-0.4218998,0.7504005-0.8222008c0,0,0.1016006-0.6738987,0.2124004-1.3477001
		c0.049818-0.3290997,0.3276997-0.5741997,0.655817-0.5830002L32.2656403,25.6299
		c0.3349991,0.0088005,0.6143188,0.2558002,0.6651001,0.5879002l0.2041016,1.3505993
		c0.0604973,0.400301,0.357399,0.7255001,0.7509003,0.8222008c0.7901001,0.1933994,1.5429993,0.5049,2.2363968,0.9258003
		c0.3466034,0.2099991,0.7861023,0.1903992,1.1113014-0.0508003c0.0018997-0.0009995,0.5488014-0.4032993,1.1045189-0.8017006
		c0.265583-0.1963005,0.6376801-0.174799,0.8720818,0.0478001l0.3857002,0.3740005
		c0.2304993,0.2432003,0.2528992,0.6163006,0.0546989,0.8857994l-0.8114815,1.1014996
		c-0.2403183,0.3262005-0.259819,0.7646999-0.0498199,1.1114006c0.4218216,0.6952991,0.7334023,1.4471989,0.9267006,2.2362995
		c0.0967026,0.3936005,0.4219017,0.6903992,0.8223,0.7509995c0,0,0.6738205,0.1015015,1.3476028,0.2108994
		c0.3282166,0.0508003,0.5732994,0.3272018,0.5820999,0.6563034l0.0087967,0.5321999
		c-0.0087967,0.3349991-0.256897,0.6141968-0.5908966,0.6649971l-1.3476028,0.205101
		c-0.4003983,0.0606003-0.7255974,0.357399-0.8223,0.7509995c-0.1932983,0.7890015-0.504879,1.5410004-0.9267006,2.2363014
		c-0.2099991,0.3466988-0.1894989,0.7851982,0.0507011,1.1113014c0.0009995,0.0019989,0.4043007,0.5488968,0.8027992,1.1035995
		c0.1963196,0.267498,0.1738014,0.6376991-0.0478973,0.8719978l-0.3730011,0.3857994
		c-0.2442017,0.2304001-0.6192017,0.252903-0.8876991,0.055603l-1.1006012-0.8105011
		c-0.3251991-0.2411995-0.764698-0.2607994-1.1113014-0.0508003c-0.6962967,0.4219017-1.4482994,0.7333984-2.2353973,0.9258003
		c-0.3945007,0.0966988-0.6914024,0.4208984-0.7518997,0.8223c0,0-0.1016006,0.6727982-0.2120018,1.3485985
		c-0.0507011,0.3281021-0.3280983,0.5732002-0.6562004,0.5820007l-0.5312996,0.0088005
		c-0.3348999-0.0088005-0.6152-0.2568016-0.6654987-0.5889015l-0.205101-1.3504982
		c-0.0604992-0.4014015-0.357399-0.7256012-0.7514-0.8223c-0.7875996-0.1924019-1.5396004-0.5038986-2.2353821-0.9258003
		c-0.1601181-0.0966988-0.3393173-0.1445007-0.5185184-0.1445007c-0.2089996,0-0.4169998,0.0653992-0.5927982,0.1943016
		c-0.0015011,0.0019989-0.5488014,0.4043007-1.1050014,0.8027c-0.2660999,0.1982994-0.6356812,0.1758003-0.8705997-0.0459023
		l-0.3866997-0.3740005c-0.2304993-0.2440987-0.2533817-0.6180992-0.0547009-0.8876991l0.8110008-1.1005974
		c0.2397995-0.3261032,0.2593174-0.7646027,0.0498009-1.110302c-0.4218006-0.6963005-0.7334003-1.4491997-0.9262009-2.2363014
		c-0.096199-0.3945999-0.4209003-0.6913986-0.8222828-0.7519989c-0.0019169,0-0.6743164-0.1016006-1.3481178-0.2118988
		c-0.3281994-0.0508003-0.5732994-0.3272018-0.5825996-0.6562996l-0.0082817-0.5321999
		C21.5322399,35.5059013,21.7803402,35.2266006,22.1123409,35.1758003z"/>
	<path d="M32.000042,40.6299019c2.4940987,0,4.5233994-2.0293007,4.5233994-4.5235023
		c0-2.4950981-2.0293007-4.5243988-4.5233994-4.5243988c-2.4940834,0-4.5234013,2.0293007-4.5234013,4.5243988
		C27.4766407,38.6006012,29.5059586,40.6299019,32.000042,40.6299019z M32.000042,33.5820007
		c1.3915977,0,2.5233994,1.1328011,2.5233994,2.5243988c0,1.3916016-1.1318016,2.5235023-2.5233994,2.5235023
		c-1.3916016,0-2.5234013-1.1319008-2.5234013-2.5235023C29.4766407,34.7148018,30.6084404,33.5820007,32.000042,33.5820007z"/>
	<path d="M59.999958,5h-56c-2.2091172,0-3.999917,1.7908001-3.999917,4v5v2v39c0,2.2090988,1.7908,4,3.999917,4h56
		c2.2091827,0,4-1.7909012,4-4V16v-2V9C63.999958,6.7908001,62.2091408,5,59.999958,5z M61.999958,55c0,1.1027985-0.8972168,2-2,2
		h-56c-1.1027172,0-1.9999999-0.8972015-1.9999999-2V16h60V55z M61.999958,14h-60V9c0-1.1027999,0.8972827-2,1.9999999-2h56
		c1.1027832,0,2,0.8972001,2,2V14z"/>
	<path d="M5.9999585,9c-0.9649172,0-1.75,0.7849998-1.75,1.75c0,0.9649,0.7850828,1.75,1.75,1.75c0.9650002,0,1.75-0.7851,1.75-1.75
		C7.7499585,9.7849998,6.9649587,9,5.9999585,9z M5.9999585,11.5c-0.4142175,0-0.75-0.3358002-0.75-0.75s0.3357825-0.75,0.75-0.75
		c0.4141827,0,0.75,0.3358002,0.75,0.75S6.4141412,11.5,5.9999585,11.5z"/>
	<path d="M15.999959,9c-0.9649181,0-1.75,0.7849998-1.75,1.75c0,0.9649,0.7850819,1.75,1.75,1.75
		c0.9649992,0,1.749999-0.7851,1.749999-1.75C17.749958,9.7849998,16.9649582,9,15.999959,9z M15.999959,11.5
		c-0.4142179,0-0.75-0.3358002-0.75-0.75s0.3357821-0.75,0.75-0.75c0.4141817,0,0.749999,0.3358002,0.749999,0.75
		S16.4141407,11.5,15.999959,11.5z"/>
	<path d="M10.999959,9c-0.9649181,0-1.75,0.7849998-1.75,1.75c0,0.9649,0.7850819,1.75,1.75,1.75c0.9649992,0,1.75-0.7851,1.75-1.75
		C12.749959,9.7849998,11.9649582,9,10.999959,9z M10.999959,11.5c-0.4142179,0-0.75-0.3358002-0.75-0.75s0.3357821-0.75,0.75-0.75
		c0.4141817,0,0.75,0.3358002,0.75,0.75S11.4141407,11.5,10.999959,11.5z"/>
</g>
<g>
</g>
<g>
</g>
<g>
</g>
<g>
</g>
<g>
</g>
<g>
</g>
<g>
</g>
<g>
</g>
<g>
</g>
<g>
</g>
<g>
</g>
<g>
</g>
<g>
</g>
<g>
</g>
<g>
</g>
</svg>
