<?xml version="1.0" encoding="utf-8"?>
<!-- Generator: Adobe Illustrator 19.1.0, SVG Export Plug-In . SVG Version: 6.00 Build 0)  -->
<svg version="1.1" id="Layer_1" xmlns="http://www.w3.org/2000/svg" xmlns:xlink="http://www.w3.org/1999/xlink" x="0px" y="0px"
	 viewBox="0 0 64 64" enable-background="new 0 0 64 64" xml:space="preserve">
<g id="Browser-window-squares">
	<path d="M18,42h2v-2v-8v-2h-2h-7.999999h-2v2v8v2h2H18z M10.000001,32H18v8h-7.999999V32z"/>
	<path d="M36,42h2v-2v-8v-2h-2h-8h-2v2v8v2h2H36z M28,32h8v8h-8V32z"/>
	<path d="M54,42h2v-2v-8v-2h-2h-8h-2v2v8v2h2H54z M46,32h8v8h-8V32z"/>
	<path d="M60,5h-56C1.7909007,5,0.0000008,6.7908001,0.0000008,9v5v2v39c0,2.2090988,1.7908999,4,3.9999998,4h56
		c2.209198,0,4-1.7909012,4-4V16v-2V9C64,6.7908001,62.209198,5,60,5z M62,55c0,1.1027985-0.8972015,2-2,2h-56
		c-1.1027997,0-1.9999998-0.8972015-1.9999998-2V16h60V55z M62,14h-60V9c0-1.1027999,0.8972001-2,1.9999998-2h56
		c1.1027985,0,2,0.8972001,2,2V14z"/>
	<path d="M6.0000005,9c-0.9649,0-1.75,0.7849998-1.75,1.75c0,0.9649,0.7851,1.75,1.75,1.75c0.9650002,0,1.75-0.7851,1.75-1.75
		C7.7500005,9.7849998,6.9650006,9,6.0000005,9z M6.0000005,11.5c-0.4141998,0-0.75-0.3358002-0.75-0.75s0.3358002-0.75,0.75-0.75
		c0.4142003,0,0.75,0.3358002,0.75,0.75S6.4142008,11.5,6.0000005,11.5z"/>
	<path d="M16,9c-0.9649,0-1.75,0.7849998-1.75,1.75c0,0.9649,0.7851,1.75,1.75,1.75c0.9650002,0,1.75-0.7851,1.75-1.75
		C17.75,9.7849998,16.9650002,9,16,9z M16,11.5c-0.4141998,0-0.75-0.3358002-0.75-0.75S15.5858002,10,16,10
		s0.75,0.3358002,0.75,0.75S16.4141998,11.5,16,11.5z"/>
	<path d="M11.000001,9c-0.9649,0-1.75,0.7849998-1.75,1.75c0,0.9649,0.7851,1.75,1.75,1.75c0.9649992,0,1.75-0.7851,1.75-1.75
		C12.750001,9.7849998,11.9650002,9,11.000001,9z M11.000001,11.5c-0.4142008,0-0.75-0.3358002-0.75-0.75s0.3357992-0.75,0.75-0.75
		c0.4141998,0,0.75,0.3358002,0.75,0.75S11.4142008,11.5,11.000001,11.5z"/>
</g>
<g>
</g>
<g>
</g>
<g>
</g>
<g>
</g>
<g>
</g>
<g>
</g>
<g>
</g>
<g>
</g>
<g>
</g>
<g>
</g>
<g>
</g>
<g>
</g>
<g>
</g>
<g>
</g>
<g>
</g>
</svg>
