<?xml version="1.0" encoding="utf-8"?>
<!-- Generator: Adobe Illustrator 19.1.0, SVG Export Plug-In . SVG Version: 6.00 Build 0)  -->
<svg version="1.1" id="Layer_1" xmlns="http://www.w3.org/2000/svg" xmlns:xlink="http://www.w3.org/1999/xlink" x="0px" y="0px"
	 viewBox="0 0 64 64" enable-background="new 0 0 64 64" xml:space="preserve">
<g id="Cloud-download">
	<path d="M37.5038986,51.9394493l-3.5653992,3.5653992V37.0458488h-2v18.459301l-3.5663986-3.5657005
		c-0.3907013-0.3905983-1.0234928-0.3905983-1.4141006,0c-0.3906002,0.3906021-0.3906002,1.0233994,0,1.4141006l4.9804993,4.9794998
		v0.0028992h0.0028l0.2901001,0.2900009c0.1953011,0.1953011,0.45121,0.2929993,0.7070999,0.2929993
		c0.2558022,0,0.5116997-0.0976982,0.7070007-0.2929993l0.2900009-0.2900009h0.0029984v-0.0029984l4.9794998-4.9794006
		c0.3906097-0.3907013,0.3906097-1.0234985,0-1.4141006C38.527298,51.548851,37.8945007,51.548851,37.5038986,51.9394493z"/>
	<path d="M46.714798,11.6044502C42.8310013,7.4531498,37.3798981,5.0810499,31.6875,5.0810499
		c-8.3017998,0-15.6562996,4.8682003-18.9081993,12.4560995C5.5635009,18.3408508,0.0000008,24.5029507,0.0000008,31.83395
		c0,7.9336014,6.4530997,14.3876991,14.3856993,14.3876991h10.8672009v-2H14.3857002
		c-6.8290915,0-12.3856993-5.5565987-12.3856993-12.3876991c0-6.4930992,5.0692997-11.9218006,11.54-12.3574009
		c0.3857994-0.0263996,0.7216997-0.2714996,0.8632994-0.6308994C17.2207012,11.6992502,24.0049,7.0810499,31.6875,7.0810499
		c5.277298,0,10.3241997,2.2578001,13.8466988,6.1953001c0.1963005,0.2196999,0.4804115,0.3428001,0.7734108,0.3330002
		c0.1278915-0.0039005,0.2548904-0.0049,0.3837891-0.0049C55.1328011,13.6044502,62,20.4716492,62,28.9130497
		s-6.8671989,15.3085995-15.3086014,15.3085995h-7.0868988v2h7.0868988C56.2352982,46.2216492,64,38.4570503,64,28.9130497
		C64,19.3769493,56.2480011,11.6181498,46.714798,11.6044502z"/>
</g>
<g>
</g>
<g>
</g>
<g>
</g>
<g>
</g>
<g>
</g>
<g>
</g>
<g>
</g>
<g>
</g>
<g>
</g>
<g>
</g>
<g>
</g>
<g>
</g>
<g>
</g>
<g>
</g>
<g>
</g>
</svg>
