<?xml version="1.0" encoding="utf-8"?>
<!-- Generator: Adobe Illustrator 19.1.0, SVG Export Plug-In . SVG Version: 6.00 Build 0)  -->
<svg version="1.1" id="Layer_1" xmlns="http://www.w3.org/2000/svg" xmlns:xlink="http://www.w3.org/1999/xlink" x="0px" y="0px"
	 viewBox="0 0 64 64" enable-background="new 0 0 64 64" xml:space="preserve">
<path id="Cloud" d="M48.147892,18.941c-1.2983971,0-2.5535965,0.1753006-3.7612991,0.4729996
	C40.9443932,15.4881001,35.9338951,13,30.3371944,13c-8.1797009,0-15.119194,5.2947998-17.6996002,12.6723003
	c-0.0374994-0.0002995-0.0735941-0.0056-0.1110992-0.0056C5.608295,25.6667004,0,31.3377991,0,38.3334007
	C0,45.3288994,5.608295,51,12.526495,51c3.0087996,0,32.4916,0,35.6213989,0C56.9027939,51,64,43.8232994,64,34.9705009
	C64,26.1175995,56.9027939,18.941,48.147892,18.941z M48.147892,48.9006004H12.526495
	c-5.749495,0-10.4271002-4.7404022-10.4271002-10.5671997c0-5.8087006,4.6484995-10.5377998,10.3733997-10.5672016
	c0.0489006,0.0031013,0.0979004,0.0051003,0.1476002,0.0055008l1.5026999,0.0123005l0.4962006-1.4185009
	c2.3568993-6.7385998,8.673399-11.2660999,15.7178993-11.2660999c4.7499981,0,9.2954998,2.0771008,12.4708042,5.6987
	l0.8415947,0.9598999l1.2396011-0.3055992c1.1086998-0.2733994,2.205101-0.4120007,3.2586975-0.4120007
	c7.5833015,0,13.7527008,6.2490005,13.7527008,13.9301014S55.7311935,48.9006004,48.147892,48.9006004z"/>
<g>
</g>
<g>
</g>
<g>
</g>
<g>
</g>
<g>
</g>
<g>
</g>
<g>
</g>
<g>
</g>
<g>
</g>
<g>
</g>
<g>
</g>
<g>
</g>
<g>
</g>
<g>
</g>
<g>
</g>
</svg>
