<?xml version="1.0" encoding="utf-8"?>
<!-- Generator: Adobe Illustrator 19.1.0, SVG Export Plug-In . SVG Version: 6.00 Build 0)  -->
<svg version="1.1" id="Layer_1" xmlns="http://www.w3.org/2000/svg" xmlns:xlink="http://www.w3.org/1999/xlink" x="0px" y="0px"
	 viewBox="0 0 64 64" enable-background="new 0 0 64 64" xml:space="preserve">
<g id="Cloud-exchange">
	<path d="M48.7919998,15.9960499c-0.4766006,0-0.9561005,0.022501-1.4336014,0.0674
		c-2.7821884-7.0262995-9.6015968-11.6924-17.2167988-11.6924c-9.6591988,0-17.5878983,7.3184004-18.4403877,16.825201
		c-6.5323114,0.4755993-11.701211,5.9413986-11.701211,12.5918007c0,6.5458984,5.0077996,11.9454002,11.3934994,12.5654984
		c0.1065006,0.0381012,0.2217112,0.0595016,0.3409004,0.0595016h3.8408108c0.5526896,0,1.000001-0.4472008,1.000001-1
		c0-0.5527-0.4473114-1-1.000001-1H12.625001c-5.8584003,0-10.625-4.7666016-10.625-10.625
		s4.7665997-10.6250019,10.6395998-10.6250019c0.5361996,0,0.9776115-0.4237995,0.9990997-0.9589005
		c0.3603001-8.8789997,7.6093006-15.8330994,16.5028992-15.8330994c7.0351009,0,13.3076115,4.4629002,15.6084003,11.1054993
		c0.1582108,0.455101,0.625,0.7305012,1.0908012,0.6621017c0.6444969-0.0947018,1.3007965-0.142601,1.9511986-0.142601
		C56.0752106,17.9960499,62,23.9209499,62,31.2041492s-5.9247894,13.2089024-13.2080002,13.2089024l-0.0283012,0.0820999
		c-0.1221008-0.052803-0.2558975-0.0820999-0.3964882-0.0820999h-4.375c-0.5528107,0-1,0.4473-1,1c0,0.5527992,0.4471893,1,1,1
		h4.375c0.1405907,0,0.2743874-0.0293007,0.3964882-0.0820007l0.0283012,0.0820007C57.1777,46.4130516,64,39.5908508,64,31.2041492
		C64,22.8183498,57.1777,15.9960499,48.7919998,15.9960499z"/>
	<path d="M43.2450981,37.423851c0.2559013,0,0.5117035-0.097702,0.7070007-0.2929993
		c0.3907013-0.3906021,0.3907013-1.0234032,0-1.4141006l-4.9277-4.9268017v-0.0077h-0.0077972l-0.285202-0.2852001
		c-0.3905983-0.3906002-1.0233994-0.3906002-1.4140015,0l-0.2851868,0.2852001h-0.0078125v0.0078011l-4.9267998,4.9267006
		c-0.3905983,0.3906975-0.3905983,1.0234985,0,1.4141006c0.3907013,0.3905983,1.0235023,0.3905983,1.4141006,0l3.5126991-3.5127029
		v18.2607994h2V33.6179504l3.5137024,3.5129013C42.7333984,37.326149,42.989212,37.423851,43.2450981,37.423851z"/>
	<path d="M27.5254002,52.7021484l-3.5137005,3.5129013V37.9541512h-2v18.2607002l-3.5126991-3.5127029
		c-0.3906002-0.3905983-1.0233994-0.3905983-1.4141006,0c-0.3906002,0.3906021-0.3906002,1.0234032,0,1.4141006l4.9267998,4.9267006
		v0.0088005h0.0088005l0.2842007,0.2841988C22.5,59.53125,22.7558002,59.6289482,23.0116997,59.6289482
		c0.2559013,0,0.5116997-0.0976982,0.7070007-0.2929993l0.2842999-0.2841988h0.0086994v-0.0087013l4.9277-4.9267998
		c0.3907013-0.3906975,0.3907013-1.0234985,0-1.4141006C28.5487995,52.3115501,27.9160004,52.3115501,27.5254002,52.7021484z"/>
</g>
<g>
</g>
<g>
</g>
<g>
</g>
<g>
</g>
<g>
</g>
<g>
</g>
<g>
</g>
<g>
</g>
<g>
</g>
<g>
</g>
<g>
</g>
<g>
</g>
<g>
</g>
<g>
</g>
<g>
</g>
</svg>
