<?xml version="1.0" encoding="utf-8"?>
<!-- Generator: Adobe Illustrator 19.1.0, SVG Export Plug-In . SVG Version: 6.00 Build 0)  -->
<svg version="1.1" id="Layer_1" xmlns="http://www.w3.org/2000/svg" xmlns:xlink="http://www.w3.org/1999/xlink" x="0px" y="0px"
	 viewBox="0 0 64 64" enable-background="new 0 0 64 64" xml:space="preserve">
<g id="CSS-file">
	<path d="M26.6522999,31.1327991c0.5410004,0.0967007,1.0576-0.2743988,1.1504002-0.8172989
		c0.0937996-0.5440006-0.2723999-1.0615997-0.8164005-1.1543007c-0.2402-0.0419998-2.4053001-0.3691998-3.9071999,0.8964996
		c-0.5879002,0.4960003-1.2880993,1.4365005-1.2880993,3.1074009l0.0039005,0.5360985
		c0.0156002,1.4971008,0.0380993,3.7598-1.0098,4.8193016c-0.4609013,0.464901-1.1210003,0.6913986-2.0195007,0.6913986
		c-0.5527,0-1,0.4473-1,1c0,0.552803,0.4473,1,1,1c0.8985004,0,1.5596008,0.2266006,2.0195007,0.6915016
		c1.0478992,1.0594978,1.0254002,3.3212013,1.0098,4.8172989l-0.0039005,0.5362015
		c0,1.6717987,0.7001991,2.6133003,1.2880993,3.1083984c0.9540997,0.8046989,2.1758003,0.9658012,3.0018997,0.9658012
		c0.4737015,0,0.8174-0.0527,0.9053001-0.0684013c0.5430012-0.092701,0.9063015-0.6063995,0.8154011-1.1493988
		c-0.0908012-0.5438995-0.6035004-0.9081993-1.1494007-0.8222008c-0.4071999,0.0672989-1.6161995,0.1132011-2.2889996-0.4589996
		c-0.3848-0.327198-0.5723-0.8428001-0.5723-1.5751991l0.0039005-0.5157013
		c0.0185986-1.8290977,0.0469131-4.592701-1.5879002-6.2440987c-0.1072998-0.1085014-0.2343998-0.1903992-0.3518009-0.285202
		c0.1174011-0.094799,0.2444-0.1767006,0.3518009-0.285099c1.6348133-1.652401,1.6064987-4.4169998,1.5879002-6.2461014
		l-0.0039005-0.5155983c0-0.7314987,0.1875-1.2460995,0.5723-1.5732994
		C25.0351009,31.0195999,26.2441006,31.0655003,26.6522999,31.1327991z"/>
	<path d="M37.5009995,29.1611996c-0.5439987,0.092701-0.910183,0.6103001-0.8163986,1.1543007
		c0.0926971,0.5438995,0.6123009,0.9120998,1.1543007,0.8164005c0.3739967-0.0635014,1.5985985-0.1182003,2.2801971,0.4549999
		c0.3887177,0.3271999,0.5772018,0.8437977,0.5772018,1.5781994l-0.0039024,0.5155983
		c-0.0185814,1.8291016-0.0468979,4.5937004,1.5879021,6.2461014c0.107399,0.1083984,0.2342987,0.1903,0.351799,0.285099
		c-0.1175003,0.0948029-0.2444992,0.1767006-0.351799,0.285202c-1.6348,1.6513977-1.6064835,4.4150009-1.5879021,6.2440987
		l0.0039024,0.5157013c0,0.732399-0.1874847,1.2480011-0.5723,1.5751991
		c-0.672802,0.5722008-1.8818016,0.5262985-2.2891006,0.4589996c-0.5438995-0.0937996-1.0584984,0.2743988-1.1502991,0.8172989
		c-0.0937843,0.5440025,0.2723999,1.0615997,0.8163986,1.1543007c0.0879021,0.0157013,0.4315987,0.0684013,0.905201,0.0684013
		c0.8261986,0,2.0479012-0.1611023,3.0019989-0.9658012c0.5879021-0.4950981,1.2881012-1.4365997,1.2881012-3.1083984
		l-0.0039024-0.5362015c-0.0156975-1.4960976-0.0380974-3.7578011,1.0097008-4.8172989
		c0.4599991-0.464901,1.1211014-0.6915016,2.0195999-0.6915016c0.5527,0,1-0.447197,1-1c0-0.5527-0.4473-1-1-1
		c-0.8984985,0-1.5585976-0.2264977-2.0195999-0.6913986c-1.0477982-1.0595016-1.0253983-3.3222008-1.0097008-4.8193016
		l0.0039024-0.5360985c0-1.6709003-0.7001991-2.6114006-1.2881012-3.1074009
		C39.9062004,28.7919998,37.7431984,29.1191998,37.5009995,29.1611996z"/>
	<path d="M56.6478157,15.7945004L41.1185989,0.293C40.9310989,0.1055,40.6618996,0,40.3968163,0L10.093401,0.002
		c-1.6489,0-3.0934005,1.3418-3.0934005,2.9912v57.8754997c0,0.8359032,0.4209003,1.6221008,1.0127006,2.2148018
		C8.6045008,63.6744003,9.486001,64,10.3219004,64H53.905899c0.795002,0,1.6012001-0.3095016,2.1637001-0.8720016
		C56.6311989,62.5654984,57,61.8184013,57,61.0243988V16.5014992C57,16.2364006,56.8353004,15.9820004,56.6478157,15.7945004z
		 M40.0834007,2.1155L53.9660988,16H40.0470009C40.1329994,7.6522999,40.1371002,3.8803,40.0834007,2.1155z M55,61.0243988
		c0,0.2569008-0.1637993,0.5083008-0.344902,0.6900024C54.4710007,61.8984985,54.1666985,62,53.905899,62H10.3219004
		c-0.3021994,0-0.6816998-0.1175995-0.8950853-0.3305016c-0.2139149-0.2143974-0.4268141-0.4986-0.4268141-0.8008003V2.9932001
		c0-0.5464001,0.5395994-0.9912,1.0859995-0.9912L38.0429993,2.0002c0.0488167,2.5220001,0.0214996,10.0921001-0.0305977,14.9890995
		c-0.002903,0.2670994,0.112999,0.5244007,0.3009987,0.7138996C38.5014,17.8931007,38.7691994,18,39.0363007,18H55V61.0243988z"/>
</g>
<g>
</g>
<g>
</g>
<g>
</g>
<g>
</g>
<g>
</g>
<g>
</g>
<g>
</g>
<g>
</g>
<g>
</g>
<g>
</g>
<g>
</g>
<g>
</g>
<g>
</g>
<g>
</g>
<g>
</g>
</svg>
