<?xml version="1.0" encoding="utf-8"?>
<!-- Generator: Adobe Illustrator 19.1.0, SVG Export Plug-In . SVG Version: 6.00 Build 0)  -->
<svg version="1.1" id="Layer_1" xmlns="http://www.w3.org/2000/svg" xmlns:xlink="http://www.w3.org/1999/xlink" x="0px" y="0px"
	 viewBox="0 0 64 64" enable-background="new 0 0 64 64" xml:space="preserve">
<g id="Database-minus">
	<path d="M58.7724991,22.8516006H5.4639006c-2.8827999,0-5.2280998,2.3466988-5.2280998,5.230999v8.4623985
		c0,2.8847008,2.3453,5.2314034,5.2280998,5.2314034h53.3085976C61.6548004,41.7764015,64,39.4296989,64,36.5449982v-8.4623985
		C64,25.1982994,61.6548004,22.8516006,58.7724991,22.8516006z M62,36.5449982c0,1.7817001-1.4477806,3.2314034-3.2275009,3.2314034
		H5.4639006c-1.7797999,0-3.2280998-1.4497032-3.2280998-3.2314034v-8.4623985c0-1.7817993,1.4482999-3.230999,3.2280998-3.230999
		h53.3085976C60.5522194,24.8516006,62,26.3008003,62,28.0825996V36.5449982z"/>
	<path d="M58.7724991,0H5.4639006C2.5811007,0,0.2358008,2.3467,0.2358008,5.2309999v8.4644003
		c0,2.8846989,2.3453,5.2313995,5.2280998,5.2313995h53.3085976C61.6548004,18.9267998,64,16.5800991,64,13.6954002V5.2309999
		C64,2.3467,61.6548004,0,58.7724991,0z M62,13.6954002c0,1.7817001-1.4477806,3.2313995-3.2275009,3.2313995H5.4639006
		c-1.7797999,0-3.2280998-1.4496994-3.2280998-3.2313995V5.2309999C2.2358007,3.4493001,3.6841006,2,5.4639006,2h53.3085976
		C60.5522194,2,62,3.4493001,62,5.2309999V13.6954002z"/>
	<path d="M37.3349991,45.0732994H5.2275004c-2.8822796,0-5.2274995,2.3466988-5.2274995,5.2313995v8.4639015
		C0.0000008,61.6534004,2.3452208,64,5.2275004,64h31.3467216c0.3993759,0,0.7607765-0.2378006,0.9184761-0.6044998
		c0.1581993-0.3670998,0.0825233-0.7929001-0.1923981-1.0830002c-1.9004021-2.0073013-2.9473-4.6380997-2.9473-7.4076996
		c0-3.0898018,1.3282204-6.0355988,3.6441002-8.0820007c0.3115005-0.2753983,0.4203987-0.714901,0.2728996-1.1035004
		C38.1230011,45.3306007,37.7504997,45.0732994,37.3349991,45.0732994z M32.3530006,54.9048004
		c0,2.5546989,0.7514992,5.0098,2.1469994,7.0951996H5.2275004c-1.7796998,0-3.2274997-1.4496994-3.2274997-3.2313995v-8.4639015
		c0-1.7817001,1.4477999-3.2313995,3.2274997-3.2313995h29.8051987
		C33.3101006,49.2969017,32.3530006,52.0489006,32.3530006,54.9048004z"/>
	<path d="M58.7245979,45.0732994h-5.6386986c-0.4160004,0-0.7881012,0.2573013-0.9355011,0.6459999
		c-0.1469994,0.3890991-0.0380974,0.8281021,0.2733994,1.1035004c2.3174248,2.0458984,3.6459999,4.9916992,3.6459999,8.0820007
		c0,2.7691002-1.0468979,5.3998985-2.9476967,7.4076996c-0.2748795,0.2901001-0.3506012,0.7159004-0.1924019,1.0830002
		C53.0873985,63.7621994,53.4487,64,53.8480988,64h4.8764992c2.8823013,0,5.2275009-2.3465996,5.2275009-5.2313995v-8.4639015
		C63.9520988,47.4199982,61.6068993,45.0732994,58.7245979,45.0732994z M61.9520988,58.7686005
		C61.9520988,60.5503006,60.5043983,62,58.7245979,62h-2.8017998c1.3955994-2.0853996,2.1469994-4.5405006,2.1469994-7.0951996
		c0-2.8558998-0.9574966-5.6078987-2.6810989-7.831501h3.3358994c1.7798004,0,3.2275009,1.4496994,3.2275009,3.2313995V58.7686005z"
		/>
	<path d="M49.5126991,54h-8.3183975c-0.5522003,0-1,0.4477997-1,1c0,0.5522995,0.4477997,1,1,1h8.3183975
		c0.5522003,0,1-0.4477005,1-1C50.5126991,54.4477997,50.0648994,54,49.5126991,54z"/>
</g>
<g>
</g>
<g>
</g>
<g>
</g>
<g>
</g>
<g>
</g>
<g>
</g>
<g>
</g>
<g>
</g>
<g>
</g>
<g>
</g>
<g>
</g>
<g>
</g>
<g>
</g>
<g>
</g>
<g>
</g>
</svg>
