<?xml version="1.0" encoding="utf-8"?>
<!-- Generator: Adobe Illustrator 19.1.0, SVG Export Plug-In . SVG Version: 6.00 Build 0)  -->
<svg version="1.1" id="Layer_1" xmlns="http://www.w3.org/2000/svg" xmlns:xlink="http://www.w3.org/1999/xlink" x="0px" y="0px"
	 viewBox="0 0 64 64" enable-background="new 0 0 64 64" xml:space="preserve">
<g id="Dimensions">
	<path d="M52.9999008,13h-14c-0.5527,0-1,0.4473-1,1c0,0.5528002,0.4473,1,1,1h13v11c0,0.5527992,0.4473,1,1,1
		c0.5527992,0,1-0.4472008,1-1V14C53.9999008,13.4473,53.5527,13,52.9999008,13z"/>
	<path d="M23.9999008,40h-13.000001V29c0-0.5527-0.4471998-1-1-1c-0.5527,0-1,0.4473-1,1v12c0,0.5527992,0.4473,1,1,1h14.000001
		c0.5527992,0,1-0.4472008,1-1C24.9999008,40.4473,24.5527,40,23.9999008,40z"/>
	<path d="M58.2448006,4H5.7551999C2.5768001,4,0.0002,6.5766001,0.0002,9.7550001v34.4899979
		C0.0002,47.4234009,2.5768001,50,5.7551999,50h19.2447014v8h-2c-0.5527,0-1,0.4473-1,1c0,0.5527992,0.4473,1,1,1h18
		c0.5527992,0,1-0.4472008,1-1c0-0.5527-0.4472008-1-1-1h-2v-8h19.2448997c3.1783981,0,5.7550011-2.5765991,5.7550011-5.7550011
		V9.7550001C63.9998016,6.5766001,61.4231987,4,58.2448006,4z M36.9999008,58h-10v-8h10V58z M61.9998016,44.2449989
		C61.9998016,46.3154984,60.3152008,48,58.2448006,48H5.7551999C3.6846001,48,2.0002,46.3154984,2.0002,44.2449989V9.7550001
		C2.0002,7.6845999,3.6846001,6,5.7551999,6h52.4896011c2.0704002,0,3.7550011,1.6845999,3.7550011,3.7550001V44.2449989z"/>
</g>
<g>
</g>
<g>
</g>
<g>
</g>
<g>
</g>
<g>
</g>
<g>
</g>
<g>
</g>
<g>
</g>
<g>
</g>
<g>
</g>
<g>
</g>
<g>
</g>
<g>
</g>
<g>
</g>
<g>
</g>
</svg>
