<?xml version="1.0" encoding="utf-8"?>
<!-- Generator: Adobe Illustrator 19.1.0, SVG Export Plug-In . SVG Version: 6.00 Build 0)  -->
<svg version="1.1" id="Layer_1" xmlns="http://www.w3.org/2000/svg" xmlns:xlink="http://www.w3.org/1999/xlink" x="0px" y="0px"
	 viewBox="0 0 64 64" enable-background="new 0 0 64 64" xml:space="preserve">
<g id="Mail-file">
	<path d="M16.6317997,39.1553001c0,10.9141006,5.1543007,17.1738014,14.1415997,17.1738014
		c7.3584023,0,9.3828011-1.0234032,9.5889015-1.1396027c0.472599-0.2665977,0.6347008-0.8544998,0.3807983-1.3330002
		c-0.2528992-0.4785004-0.8544998-0.6651001-1.3387985-0.4218979c-0.0186005,0.0088005-1.8828011,0.8945007-8.6309013,0.8945007
		c-10.5643997,0-12.1415997-9.5068016-12.1415997-15.1738014c0-0.1211014,0.1504002-12.1406002,13.152401-12.1406002
		c11.4433002,0,13.1522999,7.6064014,13.1522999,12.1406002c0,8.1650009-2.3144989,9.1094017-4.0546989,9.1094017
		c-2.4385033,0-3.0244026-0.722702-3.0430031-1.0225029v-1.9185982c0.0025024-0.0359001,0.0066032-0.0712013,0.0059013-0.1086998
		c-0.0001984-0.0081024-0.0055008-0.0153008-0.0059013-0.0235023V33.0909004c0-0.5527992-0.447197-1-1-1c-0.5527,0-1,0.4472008-1,1
		l0.0002022,0.6539001c-0.8771019-0.7111015-2.5075989-1.6539001-5.0656013-1.6539001
		c-4.3641987,0-7.0653992,4.2977982-7.0653992,8.280201c0,5.8945999,2.3768997,8.8827972,7.0653992,8.8827972
		c2.3880997,0,4.1665993-1.0489998,5.0818024-1.7391968c0.0419998,0.343399,0.1876984,0.8704987,0.664299,1.3886986
		c0.8320007,0.9033012,2.2998009,1.3613014,4.3623009,1.3613014c6.0546989,0,6.0546989-8.3613014,6.0546989-11.1094017
		c0-4.2518997-1.4766006-14.1406002-15.1522999-14.1406002C19.3535004,25.0146999,16.6317997,35.2216988,16.6317997,39.1553001z
		 M30.7733994,47.2538986c-3.5028992,0-5.0653992-2.1229973-5.0653992-6.8827972c0-2.5332031,1.6103001-6.280201,5.0653992-6.280201
		c2.9541016,0,4.2070007,1.5615005,4.2528992,1.6180992c0.0235023,0.0321999,0.0517998,0.0653992,0.0791016,0.0946999
		c0.2958984,0.3115997,0.7333984,0.9492989,0.7333984,1.330101c0,0.0014992,0.0009003,0.0027008,0.0009003,0.0042
		l0.0016022,7.7416992c-0.1693001,0.1627007-0.4361,0.4026985-0.7280006,0.6525993
		C35.0966988,45.5489006,33.3818016,47.2538986,30.7733994,47.2538986z"/>
	<path d="M56.6477013,15.7945004L41.1185989,0.293C40.9310989,0.1055,40.6618996,0,40.396801,0L10.0934,0.002
		C8.4445,0.002,7,1.3437999,7,2.9932001v57.8754997c0,0.8359032,0.4208999,1.6221008,1.0127001,2.2148018
		C8.6044998,63.6744003,9.4860001,64,10.3219004,64H53.905899c0.7949028,0,1.6012001-0.3095016,2.1637001-0.8720016
		C56.6310997,62.5654984,57,61.8184013,57,61.0243988V16.5014992C57,16.2364006,56.8352013,15.9820004,56.6477013,15.7945004z
		 M40.0834007,2.1155L53.9660988,16H40.0470009C40.1329994,7.6522999,40.1371002,3.8803,40.0834007,2.1155z M55,61.0243988
		c0,0.2569008-0.1637993,0.5083008-0.3448982,0.6900024C54.4710007,61.8984985,54.1666985,62,53.905899,62H10.3219004
		c-0.3022003,0-0.6817007-0.1175995-0.8951006-0.3305016C9.2129002,61.455101,9,61.1708984,9,60.8686981V2.9932001
		c0-0.5464001,0.5396004-0.9912,1.0860004-0.9912L38.0429001,2.0002c0.0489006,2.5220001,0.0215988,10.0921001-0.0304985,14.9890995
		c-0.002903,0.2670994,0.112999,0.5244007,0.3009987,0.7138996C38.5014,17.8931007,38.7691994,18,39.0363007,18H55V61.0243988z"/>
</g>
<g>
</g>
<g>
</g>
<g>
</g>
<g>
</g>
<g>
</g>
<g>
</g>
<g>
</g>
<g>
</g>
<g>
</g>
<g>
</g>
<g>
</g>
<g>
</g>
<g>
</g>
<g>
</g>
<g>
</g>
</svg>
