<?xml version="1.0" encoding="utf-8"?>
<!-- Generator: Adobe Illustrator 19.1.0, SVG Export Plug-In . SVG Version: 6.00 Build 0)  -->
<svg version="1.1" id="Layer_1" xmlns="http://www.w3.org/2000/svg" xmlns:xlink="http://www.w3.org/1999/xlink" x="0px" y="0px"
	 viewBox="0 0 64 64" enable-background="new 0 0 64 64" xml:space="preserve">
<g id="Document-Download">
	<path d="M36.8251991,26c0-0.5389996-0.4365005-0.9755993-0.9755974-0.9755993H28.150423
		c-0.5391235,0-0.9756222,0.4365997-0.9756222,0.9755993v10.0243988H21c-0.3945751,0-0.75,0.2374001-0.9013996,0.6026001
		c-0.1513996,0.3642006-0.0674,0.7842026,0.2119007,1.0625l10.9999981,11C31.5009995,48.8799019,31.75,48.9756012,32,48.9756012
		s0.4990005-0.0956993,0.6894226-0.2861023l11-11c0.2792778-0.2782974,0.3632774-0.6982994,0.2118759-1.0625
		C43.75,36.2617989,43.3945007,36.0243988,43,36.0243988h-6.1748009V26z M40.6445007,37.9756012L32,46.6202011l-8.6445751-8.6445999
		h4.7949982c0.5390015,0,0.9755764-0.4365005,0.9755764-0.9756012V26.9755993h5.7480011V37
		c0,0.5391006,0.4365005,0.9756012,0.9756012,0.9756012H40.6445007z"/>
	<path d="M56.6477013,15.7945004L41.1185989,0.293C40.9310989,0.1055,40.6618996,0,40.396801,0L10.0934238,0.002
		c-1.6489229,0-3.0934234,1.3418-3.0934234,2.9912v57.8754997c0,0.8359032,0.4209003,1.6221008,1.0127006,2.2148018
		C8.6045008,63.6744003,9.486001,64,10.3219004,64H53.905899c0.794899,0,1.6012001-0.3095016,2.1637001-0.8720016
		C56.6310997,62.5654984,57,61.8184013,57,61.0243988V16.5014992C57,16.2364006,56.8352013,15.9820004,56.6477013,15.7945004z
		 M40.0834236,2.1155L53.9660988,16H40.0470009C40.1329994,7.6522999,40.1371002,3.8803,40.0834236,2.1155z M55,61.0243988
		c0,0.2569008-0.1637993,0.5083008-0.344902,0.6900024C54.4710007,61.8984985,54.1666985,62,53.905899,62H10.3219004
		c-0.3021994,0-0.6816998-0.1175995-0.8950996-0.3305016c-0.2139006-0.2143974-0.4267998-0.4986-0.4267998-0.8008003V2.9932001
		c0-0.5464001,0.5395994-0.9912,1.0859995-0.9912L38.0429001,2.0002c0.0489006,2.5220001,0.0215988,10.0921001-0.0304756,14.9890995
		c-0.0029259,0.2670994,0.112999,0.5244007,0.3009987,0.7138996C38.5014229,17.8931007,38.7691994,18,39.0363007,18H55V61.0243988z"
		/>
</g>
<g>
</g>
<g>
</g>
<g>
</g>
<g>
</g>
<g>
</g>
<g>
</g>
<g>
</g>
<g>
</g>
<g>
</g>
<g>
</g>
<g>
</g>
<g>
</g>
<g>
</g>
<g>
</g>
<g>
</g>
</svg>
