<?xml version="1.0" encoding="utf-8"?>
<!-- Generator: Adobe Illustrator 19.1.0, SVG Export Plug-In . SVG Version: 6.00 Build 0)  -->
<svg version="1.1" id="Layer_1" xmlns="http://www.w3.org/2000/svg" xmlns:xlink="http://www.w3.org/1999/xlink" x="0px" y="0px"
	 viewBox="0 0 64 64" enable-background="new 0 0 64 64" xml:space="preserve">
<g id="Blank">
	<path d="M19.0363007,26.1436996c0,0.5522003,0.4476986,1,1,1h23.9999962c0.5522003,0,1-0.4477997,1-1s-0.4477997-1-1-1H20.0363007
		C19.4839993,25.1436996,19.0363007,25.5914993,19.0363007,26.1436996z"/>
	<path d="M44.0362968,35.1436996H20.0363007c-0.5523014,0-1,0.4477997-1,1s0.4476986,1,1,1h23.9999962c0.5522003,0,1-0.4477997,1-1
		S44.5884972,35.1436996,44.0362968,35.1436996z"/>
	<path d="M44.0362968,45.1436996H20.0363007c-0.5523014,0-1,0.4477997-1,1s0.4476986,1,1,1h23.9999962c0.5522003,0,1-0.4477997,1-1
		S44.5884972,45.1436996,44.0362968,45.1436996z"/>
	<path d="M56.6477966,15.6507998L41.1185989,0.1493c-0.1875-0.1875-0.4567032-0.293-0.7218018-0.293l-30.303297,0.002
		C8.4445-0.1417,7,1.2000999,7,2.8494999v57.8754997c0,0.8359032,0.421,1.7657013,1.0128002,2.3585014
		c0.5917997,0.5908012,1.4731998,1.0601997,2.3091002,1.0601997h43.5839958c0.7949028,0,1.6013031-0.4533005,2.1638031-1.0158005
		C56.6311951,62.5653992,57,61.6747017,57,60.8806992V16.3577995C57,16.0926991,56.8352966,15.8382998,56.6477966,15.6507998z
		 M40.0833969,2.2592001L53.966095,16.1436996H40.0470009C40.1329994,7.1437001,40.1370964,4.0240002,40.0833969,2.2592001z
		 M55,60.8806992c0,0.2569008-0.1637039,0.6520004-0.344902,0.8337021
		c-0.1840973,0.1840973-0.4883995,0.4292984-0.7492027,0.4292984H10.3219004c-0.3022003,0-0.6817007-0.2613983-0.8951006-0.4742012
		C9.2130003,61.455101,9,61.0271988,9,60.7249985V2.8494999c0-0.5463998,0.5396004-0.9912,1.0860004-0.9912L38.0429993,1.8565
		c0.0487976,2.5219998,0.0214996,10.0921001-0.0305023,14.9891005c-0.0029984,0.2670994,0.112999,0.6681004,0.3008995,0.8575001
		c0.1879997,0.1900005,0.4557991,0.4405994,0.7229004,0.4405994H55V60.8806992z"/>
</g>
<g>
</g>
<g>
</g>
<g>
</g>
<g>
</g>
<g>
</g>
<g>
</g>
<g>
</g>
<g>
</g>
<g>
</g>
<g>
</g>
<g>
</g>
<g>
</g>
<g>
</g>
<g>
</g>
<g>
</g>
</svg>
