<?xml version="1.0" encoding="utf-8"?>
<!-- Generator: Adobe Illustrator 19.1.0, SVG Export Plug-In . SVG Version: 6.00 Build 0)  -->
<svg version="1.1" id="Layer_1" xmlns="http://www.w3.org/2000/svg" xmlns:xlink="http://www.w3.org/1999/xlink" x="0px" y="0px"
	 viewBox="0 0 64 64" enable-background="new 0 0 64 64" xml:space="preserve">
<g id="Locked-file">
	<path d="M31.0124817,42.7705002c-0.0147991,0.0671997-0.0408001,0.1305008-0.0408001,0.202198v3.5517006
		c0,0.535202,0.4336014,0.9687996,0.9687004,0.9687996c0.5352001,0,0.9688015-0.4335976,0.9688015-0.9687996v-3.5517006
		c0-0.0569992-0.0230026-0.1062965-0.032402-0.1605988c0.5492172-0.3126984,0.9239998-0.8964005,0.9239998-1.5727005
		c0-1.0028992-0.8140984-1.8168983-1.8183994-1.8168983c-1.0026989,0-1.8167992,0.8139992-1.8167992,1.8168983
		C30.1655827,41.8846016,30.5049992,42.4482002,31.0124817,42.7705002z"/>
	<path d="M31.6337814,23.3603992c-6.1501999,0-6.1928997,5.8173008-6.1931992,9.7665997h-2.7481995
		c-1.5342007,0-2.7832012,1.2490005-2.7832012,2.7831993v14.1260033c0,1.5340996,1.2490005,2.7831993,2.7832012,2.7831993
		h18.4969978c1.535202,0,2.7842026-1.2490997,2.7842026-2.7831993V35.9101982c0-1.5341988-1.2490005-2.7831993-2.7842026-2.7831993
		h-3.3633003C37.8260002,29.2215004,37.8055801,23.3603992,31.6337814,23.3603992z M31.6337814,25.2978992
		c3.608799,0,4.2513008,2.525301,4.2546005,7.8290997h-8.5102005
		C27.3814831,27.8232002,28.0240002,25.2978992,31.6337814,25.2978992z M42.0360832,35.9101982v14.1260033
		c0,0.4667969-0.3799019,0.8456993-0.8467026,0.8456993H22.6923828c-0.4668007,0-0.8457012-0.3789024-0.8457012-0.8456993
		V35.9101982c0-0.4667969,0.3789005-0.8456993,0.8457012-0.8456993h18.4969978
		C41.6561813,35.0644989,42.0360832,35.4434013,42.0360832,35.9101982z"/>
	<path d="M56.6477814,15.7945004L41.1185837,0.293C40.9310837,0.1055,40.6618805,0,40.3967819,0L10.0933828,0.002
		C8.4444828,0.002,7,1.3437999,7,2.9932001v57.8754997c0,0.8359032,0.4208827,1.6221008,1.0126829,2.2148018
		C8.6044827,63.6744003,9.4860001,64,10.3218822,64H53.90588c0.795002,0,1.6012001-0.3095016,2.1637001-0.8720016
		C56.6310806,62.5654984,57,61.8184013,57,61.0243988V16.5014992C57,16.2364006,56.8352814,15.9820004,56.6477814,15.7945004z
		 M40.0833817,2.1155L53.9660797,16H40.0470009C40.1329994,7.6522999,40.1370811,3.8803,40.0833817,2.1155z M55,61.0243988
		c0,0.2569008-0.1638184,0.5083008-0.3449173,0.6900024C54.4710007,61.8984985,54.1666832,62,53.90588,62H10.3218822
		c-0.3021994,0-0.6816998-0.1175995-0.8950996-0.3305016C9.212883,61.455101,9,61.1708984,9,60.8686981V2.9932001
		c0-0.5464001,0.5395823-0.9912,1.0860004-0.9912L38.0429993,2.0002c0.0487823,2.5220001,0.0214844,10.0921001-0.0306168,14.9890995
		c-0.0028992,0.2670994,0.112999,0.5244007,0.3009987,0.7138996C38.5013809,17.8931007,38.7691803,18,39.0362816,18H55V61.0243988z"
		/>
</g>
<g>
</g>
<g>
</g>
<g>
</g>
<g>
</g>
<g>
</g>
<g>
</g>
<g>
</g>
<g>
</g>
<g>
</g>
<g>
</g>
<g>
</g>
<g>
</g>
<g>
</g>
<g>
</g>
<g>
</g>
</svg>
