<?xml version="1.0" encoding="utf-8"?>
<!-- Generator: Adobe Illustrator 19.1.0, SVG Export Plug-In . SVG Version: 6.00 Build 0)  -->
<svg version="1.1" id="Layer_1" xmlns="http://www.w3.org/2000/svg" xmlns:xlink="http://www.w3.org/1999/xlink" x="0px" y="0px"
	 viewBox="0 0 64 64" enable-background="new 0 0 64 64" xml:space="preserve">
<g id="Edit-Document">
	<path d="M34.0868988,21.4384995L21.5976009,46.2617989c-0.0693016,0.1385994-0.1064014,0.2919006-0.1064014,0.4472008
		l-0.0175991,7.2714996c-0.0009995,0.3778992,0.2118988,0.7246017,0.5508003,0.8955002
		c0.1415997,0.0713005,0.2958984,0.1064987,0.4491997,0.1064987c0.2118988,0,0.4218998-0.0673981,0.597599-0.1982994
		l5.8282013-4.3485985c0.125-0.0928001,0.2255993-0.2139015,0.2958984-0.3526001l12.487299-24.8241997
		c0.1191025-0.2363014,0.1386032-0.5116997,0.055603-0.762701c-0.0830002-0.2518997-0.2627029-0.4608994-0.5-0.5799999
		l-5.8086014-2.9218998C34.9374008,20.7471008,34.3348999,20.9433994,34.0868988,21.4384995z M27.5146008,48.9737015
		l-4.0361004,3.0116997L23.4902,46.9492989l11.9346008-23.7187996l4.0214005,2.0234013L27.5146008,48.9737015z"/>
	<path d="M56.6477013,15.7945004L41.1185989,0.293C40.9310989,0.1055,40.6618996,0,40.3967018,0L10.0934,0.002
		C8.4445,0.002,7,1.3437999,7,2.9932001v57.8754997c0,0.8359032,0.4208999,1.6221008,1.0127001,2.2148018
		C8.6044998,63.6744003,9.4860001,64,10.3219004,64H53.905899c0.7949028,0,1.6012001-0.3095016,2.1637001-0.8720016
		C56.6310997,62.5654984,57,61.8184013,57,61.0243988V16.5014992C57,16.2364006,56.8352013,15.9820004,56.6477013,15.7945004z
		 M40.0834007,2.1155L53.9660988,16H40.0470009C40.1329994,7.6522999,40.137001,3.8803,40.0834007,2.1155z M55,61.0243988
		c0,0.2569008-0.1637993,0.5083008-0.3450012,0.6900024C54.4710007,61.8984985,54.1665993,62,53.905899,62H10.3219004
		c-0.3022003,0-0.6817007-0.1175995-0.8951006-0.3305016C9.2129002,61.455101,9,61.1708984,9,60.8686981V2.9932001
		c0-0.5464001,0.5396004-0.9912,1.0860004-0.9912L38.0429001,2.0002c0.0489006,2.5220001,0.0215988,10.0921001-0.0304985,14.9890995
		c-0.002903,0.2670994,0.112999,0.5244007,0.3009987,0.7138996C38.5014,17.8931007,38.7691994,18,39.0363007,18H55V61.0243988z"/>
</g>
<g>
</g>
<g>
</g>
<g>
</g>
<g>
</g>
<g>
</g>
<g>
</g>
<g>
</g>
<g>
</g>
<g>
</g>
<g>
</g>
<g>
</g>
<g>
</g>
<g>
</g>
<g>
</g>
<g>
</g>
</svg>
