<?xml version="1.0" encoding="utf-8"?>
<!-- Generator: Adobe Illustrator 19.1.0, SVG Export Plug-In . SVG Version: 6.00 Build 0)  -->
<svg version="1.1" id="Layer_1" xmlns="http://www.w3.org/2000/svg" xmlns:xlink="http://www.w3.org/1999/xlink" x="0px" y="0px"
	 viewBox="0 0 64 64" enable-background="new 0 0 64 64" xml:space="preserve">
<g id="Blank-clip">
	<path d="M29.4902,19h-2.6826C23.6590996,19,21,21.4004002,21,24.2422009v17.2012005C21,43.7784004,23.2635994,45,25.5028992,45
		C27.7373009,45,30,43.8027992,30,41.5157013V29c0-0.5527-0.4473-1-1-1c-0.5527992,0-1,0.4473-1,1v12.5157013
		C28,42.5391006,26.5400009,43,25.5,43c-1.2119999,0-2.5-0.5458984-2.5-1.5565987V24.2422009
		C23,22.5146999,24.7793007,21,26.8076,21h2.6826c0.9354992,0,1.8486004,0.3535995,2.5039005,0.9706993
		C32.6425018,22.5811005,33,23.3876991,33,24.2422009v21.5146999c0,1.3895988-0.5782013,2.6991997-1.6289005,3.6855011
		C30.3192997,50.4327011,28.8584003,51,27.3631992,51h-2.5536995C21.6063995,51,19,48.5751991,19,45.594799V29
		c0-0.5527-0.4473-1-1-1c-0.5527992,0-1,0.4473-1,1v16.594799C17,49.6777992,20.5028992,53,24.8094997,53h2.5536995
		c2.0293007,0,3.9395008-0.7461014,5.3780003-2.1006012C34.1767006,49.5508003,35,47.6767998,35,45.7569008V24.2422009
		c0-1.3916016-0.5956993-2.75-1.6357994-3.7285004C32.3260994,19.5370998,30.9501991,19,29.4902,19z"/>
	<path d="M56.6477013,15.7945004L41.1185989,0.293C40.9310989,0.1055,40.6618996,0,40.3967018,0L10.0934,0.002
		C8.4445,0.002,7,1.3437999,7,2.9932001v57.8754997c0,0.8359032,0.4208999,1.6221008,1.0127001,2.2148018
		C8.6044998,63.6744003,9.4860001,64,10.3219004,64H53.905899c0.7949028,0,1.6012001-0.3095016,2.1637001-0.8720016
		C56.6310997,62.5654984,57,61.8184013,57,61.0243988V16.5014992C57,16.2364006,56.8352013,15.9820004,56.6477013,15.7945004z
		 M40.0834007,2.1155L53.9660988,16H40.0470009C40.1329994,7.6522999,40.137001,3.8803,40.0834007,2.1155z M55,61.0243988
		c0,0.2569008-0.1637993,0.5083008-0.3448982,0.6900024C54.4710007,61.8984985,54.1665993,62,53.905899,62H10.3219004
		c-0.3022003,0-0.6817007-0.1175995-0.8951006-0.3305016C9.2129002,61.455101,9,61.1708984,9,60.8686981V2.9932001
		c0-0.5464001,0.5396004-0.9912,1.0860004-0.9912L38.0429001,2.0002c0.0489006,2.5220001,0.0215988,10.0921001-0.0304985,14.9890995
		c-0.002903,0.2670994,0.112999,0.5244007,0.3009987,0.7138996C38.5014,17.8931007,38.7691994,18,39.0363007,18H55V61.0243988z"/>
</g>
<g>
</g>
<g>
</g>
<g>
</g>
<g>
</g>
<g>
</g>
<g>
</g>
<g>
</g>
<g>
</g>
<g>
</g>
<g>
</g>
<g>
</g>
<g>
</g>
<g>
</g>
<g>
</g>
<g>
</g>
</svg>
