<?xml version="1.0" encoding="utf-8"?>
<!-- Generator: Adobe Illustrator 19.1.0, SVG Export Plug-In . SVG Version: 6.00 Build 0)  -->
<svg version="1.1" id="Layer_1" xmlns="http://www.w3.org/2000/svg" xmlns:xlink="http://www.w3.org/1999/xlink" x="0px" y="0px"
	 viewBox="0 0 64 64" enable-background="new 0 0 64 64" xml:space="preserve">
<g id="Settings-file">
	<path d="M37.2089996,28.7607994C36.6180992,28.4501991,36,28.1944008,35.3623009,27.9960995l-0.1328011-0.8690987
		c-0.2109985-1.3838005-1.3779984-2.4160004-2.8202782-2.455101l-0.6641216,0.0098
		c-1.3925991,0.0389996-2.5566006,1.0674-2.7665997,2.4355011c-0.0498009,0.3085995-0.0995998,0.6191998-0.1396999,0.8779984
		c-0.637579,0.1982002-1.2558002,0.4541016-1.8465786,0.7646008l-0.7071209-0.5214996
		c-1.1268806-0.8281002-2.6836014-0.7324009-3.7373009,0.2646999l-0.4580002,0.472599
		c-0.9559994,1.0137005-1.0508003,2.5645008-0.232399,3.6758022c0.1826,0.2548981,0.3671989,0.5087967,0.5214996,0.7206993
		c-0.3106003,0.5907974-0.5664005,1.2089996-0.764679,1.8476982L20.7451,35.3516006
		c-1.3838005,0.2108994-2.4160004,1.3778992-2.4550991,2.8203011l0.0098,0.6640968
		c0.0389996,1.392601,1.067421,2.5566025,2.4345989,2.7656021c0.3086014,0.0508003,0.6201,0.1006012,0.8789005,0.1415977
		c0.1982002,0.6377029,0.4540997,1.2549019,0.7646008,1.8457031l-0.5205002,0.7069969
		c-0.830101,1.1270027-0.7353001,2.6827011,0.2598209,3.7334023l0.4764786,0.4628983
		c1.0126991,0.9561005,2.562521,1.0489006,3.6758003,0.2315025c0.2538986-0.1826019,0.5087986-0.3672028,0.7207203-0.5214996
		c0.5917797,0.3114967,1.2099991,0.5673981,1.8466797,0.7655983l0.1327991,0.8690987
		c0.2108994,1.3829002,1.3779011,2.4151001,2.8203011,2.4542007l0.6641006-0.0088005
		c1.3925972-0.0391006,2.5565987-1.0683975,2.7655983-2.4356003c0.0508003-0.3085976,0.1006012-0.6190987,0.1405983-0.8788986
		c0.6377029-0.1982002,1.254921-0.4530983,1.8467026-0.7645988l0.7070007,0.5214005
		c1.1279984,0.8290977,2.6826973,0.7343979,3.7353973-0.2627029l0.4599991-0.4745979
		c0.9550018-1.0135994,1.0498238-2.5634003,0.2324028-3.6757011c-0.182579-0.2538986-0.3672028-0.5088005-0.5214996-0.7206993
		c0.3115005-0.5918007,0.5673981-1.2099991,0.7655983-1.8466988l0.8671989-0.1328011
		c1.3838005-0.2089996,2.4169998-1.3759995,2.4561234-2.8194008l-0.0088234-0.6660004
		c-0.0410004-1.392601-1.069397-2.5556984-2.4365997-2.7655983c-0.3084984-0.0498009-0.6190987-0.0986023-0.8778992-0.1397018
		c-0.1972008-0.6366997-0.4530983-1.2547989-0.7645988-1.8465996l0.5214996-0.7070999
		c0.8290977-1.1259003,0.7334213-2.6816006-0.2626991-3.7353001l-0.4746017-0.4599991
		c-1.0126991-0.9560013-2.5625-1.0508003-3.6749001-0.2314014C37.6758003,28.4218998,37.4208984,28.6065006,37.2089996,28.7607994z
		 M40.2265015,29.9200001l0.434597,0.4209003c0.2969017,0.3134003,0.3262024,0.7929001,0.0713005,1.1395988l-0.9053001,1.2285004
		c-0.2392006,0.3261986-0.2597008,0.7647018-0.0498009,1.1113014c0.4776001,0.7871971,0.8291016,1.6376991,1.0469246,2.5284004
		c0.0966759,0.3944969,0.4218788,0.6913986,0.8231773,0.7518997c0.0019989,0,0.7529984,0.1133003,1.5038986,0.2353973
		c0.4219208,0.0643997,0.7374001,0.4218025,0.7490997,0.8418007l0.0088234,0.6044998
		c-0.0118217,0.4286995-0.3291206,0.788002-0.7579231,0.8525009l-1.5038986,0.2285004
		c-0.4012985,0.0606003-0.7265015,0.357399-0.8231773,0.7519989c-0.217823,0.8896027-0.5693245,1.7402-1.0469246,2.5273018
		c-0.2098999,0.3466988-0.1893997,0.7851982,0.0498009,1.1112976c0.0009995,0.0010033,0.4512024,0.6133003,0.8964996,1.232502
		c0.252903,0.3437004,0.2236214,0.8192978-0.0663757,1.1259003l-0.4180031,0.4316978
		c-0.3115196,0.2959023-0.7939186,0.3262024-1.1386185,0.0703011l-1.2285004-0.9053001
		c-0.3262024-0.2392006-0.7637024-0.2597008-1.1114006-0.0498009c-0.7871017,0.4776001-1.6376991,0.8291016-2.5273018,1.0469017
		c-0.3945999,0.0966988-0.6913986,0.4218979-0.7519989,0.8232002c0,0-0.1133003,0.7519989-0.2363014,1.5038986
		c-0.0644989,0.4219017-0.4208755,0.7373009-0.8417969,0.7490997l-0.6035004,0.0088005
		c-0.4297009-0.0117989-0.7881012-0.3292007-0.8535004-0.7548981l-0.2294998-1.5088005
		c-0.0605793-0.4004021-0.3574009-0.7246017-0.7510014-0.8213005c-0.8895779-0.2178001-1.7402-0.5693016-2.5272999-1.0469017
		c-0.1602001-0.0966988-0.3398991-0.1444969-0.5185986-0.1444969c-0.2090015,0-0.4169998,0.0653992-0.5928001,0.1942978
		c-0.0008793,0.0009995-0.6133003,0.4511986-1.2324009,0.8964996c-0.3446999,0.2528992-0.8192997,0.2236023-1.1220989-0.0615005
		l-0.4355011-0.4228973c-0.2958794-0.3125-0.3251991-0.7919998-0.0692997-1.1386032l0.9043007-1.2285995
		c0.2391987-0.3260994,0.2596989-0.7645988,0.049799-1.1112976c-0.4755993-0.7842026-0.8281994-1.6357002-1.0478992-2.5283012
		c-0.0967007-0.3936005-0.4209003-0.6903992-0.8223-0.7509995c0,0-0.7518997-0.1133003-1.5039005-0.2363014
		c-0.4218006-0.0644989-0.7362995-0.4208984-0.7479992-0.8466988l-0.0098-0.5985985
		c0.0116997-0.4297028,0.3300991-0.7881012,0.7558994-0.8535004l1.5058002-0.2276001
		c0.4013996-0.0605011,0.7265987-0.3574028,0.8232994-0.7509995c0.2187004-0.8935013,0.5713005-1.7441025,1.0468998-2.5293007
		c0.2098999-0.3465996,0.1893997-0.7851028-0.049799-1.1113014c-0.0010014-0.0009995-0.4512005-0.6133003-0.8965015-1.2334003
		c-0.2529984-0.3428001-0.2236996-0.8174,0.0644016-1.1229992l0.4189987-0.4326
		c0.3125-0.2959003,0.7919998-0.3271999,1.1396008-0.0713005l1.2285004,0.905201
		c0.3261986,0.2392998,0.7636986,0.2598,1.1113987,0.049799c0.7841015-0.4755001,1.6357212-0.8281002,2.5283012-1.0478001
		c0.3934994-0.0956993,0.6894207-0.419899,0.75-0.8202991c0.0009995-0.0020008,0.1152-0.7549,0.237299-1.5058994
		c0.0643997-0.4219017,0.4209003-0.7363014,0.8467007-0.7480011l0.5985985-0.0098
		c0.4297028,0.0116997,0.7881012,0.330101,0.8535004,0.7558994c0,0.0009003,0,0.0009003,0,0.0019016l0.2285004,1.5038986
		c0.0606003,0.4013996,0.357399,0.7256012,0.7509995,0.8223c0.892601,0.2196999,1.7441025,0.5723,2.5283012,1.0478001
		c0.3476982,0.210001,0.7851982,0.1895008,1.1114006-0.049799c0.0018997-0.0009003,0.6123009-0.4511013,1.232399-0.8955002
		C39.4492226,29.6054993,39.9238014,29.6348,40.2265015,29.9200001z"/>
	<path d="M32.0996017,33.5489006c-2.7197018,0-4.9326019,2.2128983-4.9326019,4.9325981
		c0,2.7207031,2.2129002,4.9336014,4.9326019,4.9336014s4.932621-2.2128983,4.932621-4.9336014
		C37.0322227,35.7617989,34.8193016,33.5489006,32.0996017,33.5489006z M32.0996017,41.4151001
		c-1.6172009,0-2.9326019-1.3163986-2.9326019-2.9336014c0-1.6171989,1.3154011-2.9325981,2.9326019-2.9325981
		c1.6171989,0,2.932621,1.3153992,2.932621,2.9325981C35.0322227,40.0987015,33.7168007,41.4151001,32.0996017,41.4151001z"/>
	<path d="M56.6477013,15.7945004L41.1185989,0.293C40.9310989,0.1055,40.6618996,0,40.396801,0l-30.3034,0.002
		c-1.6489,0-3.0934005,1.3418-3.0934005,2.9912v57.8754997c0,0.8359032,0.4209003,1.6221008,1.0127006,2.2148018
		C8.6045008,63.6744003,9.486001,64,10.3219004,64H53.905899c0.794899,0,1.6012001-0.3095016,2.1637001-0.8720016
		C56.6310997,62.5654984,57,61.8184013,57,61.0243988V16.5014992C57,16.2364006,56.8352203,15.9820004,56.6477013,15.7945004z
		 M40.0834007,2.1155L53.9660988,16H40.0470009C40.1329994,7.6522999,40.1371002,3.8803,40.0834007,2.1155z M55,61.0243988
		c0,0.2569008-0.1637802,0.5083008-0.344902,0.6900024C54.4710007,61.8984985,54.1666985,62,53.905899,62H10.3219004
		c-0.3021994,0-0.6816797-0.1175995-0.8950996-0.3305016c-0.2139006-0.2143974-0.4267998-0.4986-0.4267998-0.8008003V2.9932001
		c0-0.5464001,0.5395994-0.9912,1.0859995-0.9912L38.0429993,2.0002c0.0488014,2.5220001,0.0214996,10.0921001-0.0305977,14.9890995
		c-0.002903,0.2670994,0.112999,0.5244007,0.3009987,0.7138996C38.5014,17.8931007,38.7692223,18,39.0363007,18H55V61.0243988z"/>
</g>
<g>
</g>
<g>
</g>
<g>
</g>
<g>
</g>
<g>
</g>
<g>
</g>
<g>
</g>
<g>
</g>
<g>
</g>
<g>
</g>
<g>
</g>
<g>
</g>
<g>
</g>
<g>
</g>
<g>
</g>
</svg>
