<?xml version="1.0" encoding="utf-8"?>
<!-- Generator: Adobe Illustrator 19.1.0, SVG Export Plug-In . SVG Version: 6.00 Build 0)  -->
<svg version="1.1" id="Layer_1" xmlns="http://www.w3.org/2000/svg" xmlns:xlink="http://www.w3.org/1999/xlink" x="0px" y="0px"
	 viewBox="0 0 64 64" enable-background="new 0 0 64 64" xml:space="preserve">
<g id="Media-file">
	<path d="M23.4598999,25.1259995c-0.3027,0.1875-0.487299,0.517601-0.487299,0.8740005v18
		c0,0.3564987,0.1845989,0.6865997,0.487299,0.8740997C23.625,44.9756012,23.8125,45.027401,24,45.027401
		c0.1571999,0,0.3143997-0.0362015,0.4589996-0.1084023l18-9C42.8075981,35.7452011,43.0273018,35.3886986,43.0273018,35
		c0-0.3885994-0.2197037-0.7450981-0.5683022-0.9188995l-18-9C24.1415997,24.9218998,23.7626991,24.9384995,23.4598999,25.1259995z
		 M25.0272999,27.6620998L39.7030983,35l-14.6757984,7.3378983V27.6620998z"/>
	<path d="M56.6477013,15.7945004L41.1185989,0.293C40.9310989,0.1055,40.6618996,0,40.396801,0L10.0934,0.002
		C8.4445,0.002,7,1.3437999,7,2.9932001v57.8754997c0,0.8359032,0.4208999,1.6221008,1.0127001,2.2148018
		C8.6044998,63.6744003,9.4860001,64,10.3219004,64H53.905899c0.7949028,0,1.6012001-0.3095016,2.1637001-0.8720016
		C56.6310997,62.5654984,57,61.8184013,57,61.0243988V16.5014992C57,16.2364006,56.8352013,15.9820004,56.6477013,15.7945004z
		 M40.0834007,2.1155L53.9660988,16H40.0470009C40.1329994,7.6522999,40.1371002,3.8803,40.0834007,2.1155z M55,61.0243988
		c0,0.2569008-0.1637993,0.5083008-0.3448982,0.6900024C54.4710007,61.8984985,54.1666985,62,53.905899,62H10.3219004
		c-0.3022003,0-0.6817007-0.1175995-0.8951006-0.3305016C9.2129002,61.455101,9,61.1708984,9,60.8686981V2.9932001
		c0-0.5464001,0.5396004-0.9912,1.0860004-0.9912L38.0429001,2.0002c0.0489006,2.5220001,0.0215988,10.0921001-0.0304985,14.9890995
		c-0.002903,0.2670994,0.112999,0.5244007,0.3009987,0.7138996C38.5014,17.8931007,38.7691994,18,39.0363007,18H55V61.0243988z"/>
</g>
<g>
</g>
<g>
</g>
<g>
</g>
<g>
</g>
<g>
</g>
<g>
</g>
<g>
</g>
<g>
</g>
<g>
</g>
<g>
</g>
<g>
</g>
<g>
</g>
<g>
</g>
<g>
</g>
<g>
</g>
</svg>
