<?xml version="1.0" encoding="utf-8"?>
<!-- Generator: Adobe Illustrator 19.1.0, SVG Export Plug-In . SVG Version: 6.00 Build 0)  -->
<svg version="1.1" id="Layer_1" xmlns="http://www.w3.org/2000/svg" xmlns:xlink="http://www.w3.org/1999/xlink" x="0px" y="0px"
	 viewBox="0 0 64 64" enable-background="new 0 0 64 64" xml:space="preserve">
<path id="Checkpoint_2_" d="M44.7831306,10.4120998L50.9657326,1.5733c0.2138977-0.3056999,0.2402-0.7041,0.0673981-1.0352
	C50.8612289,0.2071,50.5194321,0,50.146431,0H19.9022312c-0.5527,0-1,0.4473-1,1v17.5566998
	c0,0.0170994,0.0088997,0.0314007,0.0098,0.0484009V53c0,0.0015984,0.0009003,0.0028992,0.0009003,0.0045013
	c-3.4188004,0.4835968-6.0595007,3.4209976-6.0595007,6.9710999c0,1.2353973,0.3262005,2.4530983,0.9442997,3.5243988
	c0.1787004,0.3096008,0.5088005,0.5,0.8662004,0.5h10.4766006c0.357399,0,0.6875-0.1903992,0.8661995-0.4990005
	c0.6171989-1.0692978,0.9442997-2.2881012,0.9442997-3.5253983c0-3.5501022-2.6406994-6.4875031-6.0594997-6.9710999
	c0-0.0016022,0.0009003-0.002903,0.0009003-0.0045013V19.5566998H50.146431c0.3866997,0,0.7382011-0.2227001,0.9033012-0.5713005
	c0.1660004-0.3495998,0.1152-0.7626991-0.1289024-1.0614986L44.7831306,10.4120998z M24.9510307,59.9756012
	c0,0.6982994-0.1455002,1.3886986-0.4237995,2.0243988h-9.25c-0.2783003-0.6366997-0.4238005-1.3270988-0.4238005-2.0243988
	c0-2.7842026,2.2645998-5.0488014,5.0488005-5.0488014S24.9510307,57.1913986,24.9510307,59.9756012z M20.9022312,17.5566998V2
	H48.226429l-5.5155983,7.8858004c-0.2568016,0.3671999-0.2383003,0.8593998,0.044899,1.2059994l5.2823029,6.4649H20.9022312z"/>
<g>
</g>
<g>
</g>
<g>
</g>
<g>
</g>
<g>
</g>
<g>
</g>
<g>
</g>
<g>
</g>
<g>
</g>
<g>
</g>
<g>
</g>
<g>
</g>
<g>
</g>
<g>
</g>
<g>
</g>
</svg>
