<?xml version="1.0" encoding="utf-8"?>
<!-- Generator: Adobe Illustrator 19.1.0, SVG Export Plug-In . SVG Version: 6.00 Build 0)  -->
<svg version="1.1" id="Layer_1" xmlns="http://www.w3.org/2000/svg" xmlns:xlink="http://www.w3.org/1999/xlink" x="0px" y="0px"
	 viewBox="0 0 64 64" enable-background="new 0 0 64 64" xml:space="preserve">
<path id="Protocol" d="M58.2743988,41.9394989V13.2470999c0-2.4784994-2.0156021-4.4941998-4.4932022-4.4941998H31.4520969
	V6.6817002c0-1.6524-0.6424999-3.2041001-1.8094997-4.3711004c-1.1669998-1.168-2.719799-1.8106-4.3710995-1.8106H9.8544998
	c-2.2763996,0-4.1289001,1.8526001-4.1289001,4.1299v37.3096008c0,2.4775009,2.0156002,4.4930992,4.4931006,4.4930992h21.1167965
	c-0.0506001,0.1198006-0.0786991,0.2514-0.0786991,0.3897018V51.5H22v5.4403992H7.2402c-0.5527,0-1,0.4473-1,1
	c0,0.5527992,0.4473,1,1,1H22V63.5h19.9999962v-4.5596008H56.336895c0.5527,0,1-0.4472008,1-1c0-0.5527-0.4473-1-1-1H41.9999962
	V51.5h-8.7431984v-4.6777c0-0.1383018-0.0279999-0.2699013-0.0786018-0.3897018h20.6030006
	C56.2587967,46.4325981,58.2743988,44.4169998,58.2743988,41.9394989z M39.9999962,61.5H23.9999981v-8h15.9999981V61.5z
	 M7.7255998,41.9394989V4.6299c0-1.1747999,0.9551005-2.1299,2.1289001-2.1299h15.4169979
	c1.1171989,0,2.1669998,0.4346001,2.9569988,1.2246001c0.7891006,0.7890999,1.2236004,1.8388999,1.2236004,2.9571002v3.0711999
	c0,0.5528002,0.4473038,1,1,1h23.3290997c1.375,0,2.4932022,1.1191998,2.4932022,2.4941998v28.6923981
	c0,1.375-1.1182022,2.4930992-2.4932022,2.4930992H10.2187004C8.8437004,44.4325981,7.7255998,43.3144989,7.7255998,41.9394989z"/>
<g>
</g>
<g>
</g>
<g>
</g>
<g>
</g>
<g>
</g>
<g>
</g>
<g>
</g>
<g>
</g>
<g>
</g>
<g>
</g>
<g>
</g>
<g>
</g>
<g>
</g>
<g>
</g>
<g>
</g>
</svg>
