<?xml version="1.0" encoding="utf-8"?>
<!-- Generator: Adobe Illustrator 19.1.0, SVG Export Plug-In . SVG Version: 6.00 Build 0)  -->
<svg version="1.1" id="Layer_1" xmlns="http://www.w3.org/2000/svg" xmlns:xlink="http://www.w3.org/1999/xlink" x="0px" y="0px"
	 viewBox="0 0 64 64" enable-background="new 0 0 64 64" xml:space="preserve">
<g id="Folder">
	<path d="M58.7167511,13.9989996H31.10355v-2.6317997c0-1.9678001-0.7656994-3.8183999-2.1543007-5.21
		c-1.3886986-1.3915997-3.2353992-2.1581998-5.2011986-2.1581998H4.8378501c-2.6679001,0-4.8388,2.1738-4.8388,4.8456998v45.8623009
		c0,2.9189987,2.3711002,5.2939987,5.2851,5.2939987h53.4326019c2.9141006,0,5.2842026-2.375,5.2842026-5.2939987V19.4375
		C64.0009537,16.4892998,61.5810509,13.9989996,58.7167511,13.9989996z M4.8378501,6.0009999h18.9102001
		c1.4296989,0,2.7733994,0.5576,3.7841988,1.5703001c1.0116997,1.0137,1.5692997,2.3623004,1.5692997,3.7958999v2.6353998
		L2.0009501,14.0818005V8.8446999C2.0009501,7.2764001,3.2734499,6.0009999,4.8378501,6.0009999z M61.9990501,54.7070007
		c0,1.8154984-1.472702,3.2919998-3.282299,3.2919998H5.2841501c-1.8105001,0-3.2832-1.4765015-3.2832-3.2919998V16.0818005
		L30.0029507,16c0.0165997-0.0001001,0.0304985-0.0087996,0.046999-0.0095997
		c0.018301,0.0009995,0.0339012,0.0105991,0.0526009,0.0105991h28.6142006c1.7793007,0,3.282299,1.5741997,3.282299,3.4365005
		V54.7070007z"/>
	<path d="M29.9999504,48.9931984h-20c-0.5556002,0-1.0068007,0.4511032-1.0068007,1.0068016
		s0.4512005,1.0068016,1.0068007,1.0068016h20c0.5557003,0,1.0068989-0.4511032,1.0068989-1.0068016
		S30.5556507,48.9931984,29.9999504,48.9931984z"/>
	<path d="M29.9999504,40.9931984h-20c-0.5556002,0-1.0068007,0.4511032-1.0068007,1.0068016
		s0.4512005,1.0068016,1.0068007,1.0068016h20c0.5557003,0,1.0068989-0.4511032,1.0068989-1.0068016
		S30.5556507,40.9931984,29.9999504,40.9931984z"/>
</g>
<g>
</g>
<g>
</g>
<g>
</g>
<g>
</g>
<g>
</g>
<g>
</g>
<g>
</g>
<g>
</g>
<g>
</g>
<g>
</g>
<g>
</g>
<g>
</g>
<g>
</g>
<g>
</g>
<g>
</g>
</svg>
