<?xml version="1.0" encoding="utf-8"?>
<!-- Generator: Adobe Illustrator 19.1.0, SVG Export Plug-In . SVG Version: 6.00 Build 0)  -->
<svg version="1.1" id="Layer_1" xmlns="http://www.w3.org/2000/svg" xmlns:xlink="http://www.w3.org/1999/xlink" x="0px" y="0px"
	 viewBox="0 0 64 64" enable-background="new 0 0 64 64" xml:space="preserve">
<g id="Favorite-folder">
	<path d="M58.716301,14.1450005H31.1021004v-2.7778006c0-1.9682999-0.7651005-3.8178997-2.1533012-5.2079997
		C27.5606003,4.7666001,25.7138996,4,23.7486,4H4.8383999C2.1705,4,0,6.1743002,0,8.8466997v45.860302
		C0,57.6254997,2.3701999,60,5.2837,60H58.716301C61.6299019,60,64,57.6254997,64,54.7070007V19.4375
		C64,16.5189991,61.6299019,14.1450005,58.716301,14.1450005z M62,54.7070007C62,56.5228996,60.5269012,58,58.716301,58H5.2837
		C3.4732001,58,2,56.5228996,2,54.7070007V8.8466997C2,7.2768998,3.2735,6,4.8383999,6H23.7486
		c1.4297009,0,2.7738991,0.5581002,3.7845993,1.5718002C28.5450001,8.585,29.1021004,9.9326,29.1021004,11.3671999v3.7778006
		c0,0.5522995,0.4477005,1,1,1H58.716301C60.5269012,16.1450005,62,17.6221008,62,19.4375V54.7070007z"/>
	<path d="M40.8506012,33.0601006l-3.8871994-0.7959023l-4.0791016-7.730999c-0.3456993-0.6561985-1.4228001-0.6561985-1.7684994,0
		l-4.0796013,7.730999l-8.2367992,1.6879005C18.4493008,34.0238991,18.1641006,34.2764015,18.0513,34.6152
		c-0.1128006,0.3389015-0.0366001,0.7123985,0.2001991,0.9794998l5.7461014,6.483902l-1.0244007,8.8056984
		c-0.0424995,0.3633003,0.1172009,0.7206993,0.4155006,0.9320984c0.299799,0.2109032,0.6889992,0.2432022,1.0175991,0.081501
		L32,48.1781998l7.5952988,3.7196999C39.7349014,51.966301,39.8852997,52,40.0351982,52
		c0.2031021,0,0.4058037-0.0620003,0.5776024-0.1836014c0.2984009-0.2113991,0.4580002-0.5687981,0.4155998-0.9320984
		l-1.0259018-8.8056984l5.7461014-6.483902C45.9107018,35.4121017,46,35.1763,46,34.9315987
		C46,34.1147003,46,34.1147003,40.8506012,33.0601006z M38.2089996,41.0868988
		c-0.1884995,0.2129021-0.2778015,0.4961014-0.2445984,0.778801l0.8656998,7.4306984l-6.3901024-3.1293983
		c-0.2773972-0.1357994-0.6025982-0.1357994-0.8798981,0l-6.3887005,3.1293983l0.8642998-7.4306984
		c0.0331993-0.2826996-0.0562-0.5658989-0.2446003-0.778801l-4.8945999-5.5228996l7.0044003-1.4356003
		c0.2935009-0.0599976,0.5440006-0.2479973,0.6835995-0.5126991L32,27.1431007l3.4155998,6.472599
		c0.1395988,0.2647018,0.3905983,0.4527016,0.6836014,0.5126991c0,0,4.4764977,0.9165001,7.0047989,1.4351006L38.2089996,41.0868988
		z"/>
</g>
<g>
</g>
<g>
</g>
<g>
</g>
<g>
</g>
<g>
</g>
<g>
</g>
<g>
</g>
<g>
</g>
<g>
</g>
<g>
</g>
<g>
</g>
<g>
</g>
<g>
</g>
<g>
</g>
<g>
</g>
</svg>
