<?xml version="1.0" encoding="utf-8"?>
<!-- Generator: Adobe Illustrator 19.1.0, SVG Export Plug-In . SVG Version: 6.00 Build 0)  -->
<svg version="1.1" id="Layer_1" xmlns="http://www.w3.org/2000/svg" xmlns:xlink="http://www.w3.org/1999/xlink" x="0px" y="0px"
	 viewBox="0 0 64 64" enable-background="new 0 0 64 64" xml:space="preserve">
<g id="Urn">
	<path d="M51.8656998,5.4326H40.6636009V5.4159999c0-1.4462998-0.5634995-2.8055999-1.5870018-3.8290999
		C38.0531998,0.5635,36.6927986,0,35.2456017,0H29.9438c-1.4237823,0-2.7626991,0.5537-3.7684994,1.5596
		C25.1693993,2.5655,24.6147003,3.9043,24.6147003,5.3291001V5.4326H12.0991001
		c-2.9579992,0-5.3651996,2.4063001-5.3651996,5.3642998v5.1416006c0,0.5526991,0.4472003,0.999999,1,0.999999h2.8309999v37.1523018
		c0,2.6455002,1.0313005,5.1338005,2.9033003,7.006897C15.3393002,62.9696999,17.8285999,64,20.4761009,64h23.2402
		c2.5967178,0,5.0380974-1.0107002,6.872097-2.8466988c1.8359032-1.8369026,2.8466187-4.2763023,2.8466187-6.8701019V16.9384995
		h2.8310814c0.5527,0,1-0.4473,1-0.999999v-5.1055002C57.266098,7.8555002,54.8432007,5.4326,51.8656998,5.4326z
		 M51.4350166,54.2831993c0,2.0596008-0.8027153,3.9971008-2.2607155,5.4561005C47.7173004,61.1973,45.778801,62,43.716301,62
		h-23.2402c-2.1133003,0-4.0997009-0.8222008-5.5938005-2.3163986c-1.4727001-1.4736023-2.3174-3.5116997-2.3174-5.5928001
		V16.9384995h38.8701172V54.2831993z M55.266098,14.9385004h-2.8310814H11.5649004H8.733901v-4.1416006
		c0-1.8555002,1.5096998-3.3642998,3.3651991-3.3642998h13.5156002c0.5527992,0,1-0.4471998,1-1V5.3291001
		c0-0.8906002,0.3456993-1.7265,0.9745998-2.3545001C28.2084999,2.3555,29.0669003,2,29.9438,2h5.3018017
		c0.8994179,0,1.7802963,0.3652999,2.4169998,1.0009999c0.6455002,0.6455002,1.0009995,1.5029001,1.0009995,2.415V6.4326
		c0,0.5528002,0.4472008,1,1,1h12.2020988c1.875,0,3.4003983,1.5254002,3.4003983,3.4004002V14.9385004z"/>
	<path d="M22.1557007,52.2344017c0.5527992,0,1-0.4473,1-1V26.2334003c0-0.5527-0.4472008-1-1-1c-0.5526829,0-1,0.4473-1,1
		v25.0010014C21.1557007,51.7871017,21.6030178,52.2344017,22.1557007,52.2344017z"/>
	<path d="M32.4673004,52.2344017c0.5527191,0,1-0.4473,1-1V26.2334003c0-0.5527-0.4472809-1-1-1c-0.5528011,0-1,0.4473-1,1
		v25.0010014C31.4673004,51.7871017,31.9144993,52.2344017,32.4673004,52.2344017z"/>
	<path d="M42.7798004,52.2344017c0.5527,0,1-0.4473,1-1V26.2334003c0-0.5527-0.4473-1-1-1c-0.552784,0-1,0.4473-1,1v25.0010014
		C41.7798004,51.7871017,42.2270164,52.2344017,42.7798004,52.2344017z"/>
</g>
<g>
</g>
<g>
</g>
<g>
</g>
<g>
</g>
<g>
</g>
<g>
</g>
<g>
</g>
<g>
</g>
<g>
</g>
<g>
</g>
<g>
</g>
<g>
</g>
<g>
</g>
<g>
</g>
<g>
</g>
</svg>
