<?xml version="1.0" encoding="utf-8"?>
<!-- Generator: Adobe Illustrator 19.1.0, SVG Export Plug-In . SVG Version: 6.00 Build 0)  -->
<svg version="1.1" id="Layer_1" xmlns="http://www.w3.org/2000/svg" xmlns:xlink="http://www.w3.org/1999/xlink" x="0px" y="0px"
	 viewBox="0 0 64 64" enable-background="new 0 0 64 64" xml:space="preserve">
<g id="House_1_">
	<path d="M61.6377182,24.2297249L49.0000191,13.7709246V1.0002249c0-0.5526999-0.4473-0.9999999-1-0.9999999
		c-0.5527992,0-1,0.4473-1,0.9999999v11.1154995L32.6377182,0.229725c-0.3711014-0.3066-0.9042988-0.3066-1.2754002,0l-29,24
		c-0.3242002,0.2686005-0.4463,0.7129002-0.3027999,1.1093998c0.1425998,0.3964996,0.5186,0.6611004,0.9404998,0.6611004h5.0000005
		v37c0,0.5527,0.4471998,0.9999962,1,0.9999962h46c0.5527,0,1-0.4472961,1-0.9999962v-37h5
		c0.4218979,0,0.7977982-0.2646008,0.9403992-0.6611004C62.0840187,24.942625,61.9619179,24.4983253,61.6377182,24.2297249z
		 M25.0000191,62.0002251v-24h14v24H25.0000191z M54.0000191,62.0002251h-13v-25c0-0.5527-0.4473-1-1-1h-16
		c-0.5528011,0-1,0.4473-1,1v25h-13v-36h44V62.0002251z M5.7763186,24.0002251L32.0000191,2.298125l26.2235985,21.7021008H5.7763186
		z"/>
	<path d="M30.3496189,7.241425l-14,12c-0.4198999,0.3593998-0.4688005,0.9903011-0.1084003,1.4092007
		c0.1973,0.2313995,0.4775009,0.3495998,0.7588005,0.3495998c0.2304001,0,0.4618988-0.0790997,0.6504002-0.2411995l14-12.000001
		c0.4199009-0.3593998,0.4686985-0.9901996,0.1084003-1.4091997C31.4004192,6.928925,30.7685184,6.8820248,30.3496189,7.241425z"/>
</g>
<g>
</g>
<g>
</g>
<g>
</g>
<g>
</g>
<g>
</g>
<g>
</g>
<g>
</g>
<g>
</g>
<g>
</g>
<g>
</g>
<g>
</g>
<g>
</g>
<g>
</g>
<g>
</g>
<g>
</g>
</svg>
