<?xml version="1.0" encoding="utf-8"?>
<!-- Generator: Adobe Illustrator 19.1.0, SVG Export Plug-In . SVG Version: 6.00 Build 0)  -->
<svg version="1.1" id="Layer_1" xmlns="http://www.w3.org/2000/svg" xmlns:xlink="http://www.w3.org/1999/xlink" x="0px" y="0px"
	 viewBox="0 0 64 64" enable-background="new 0 0 64 64" xml:space="preserve">
<g id="Info-file">
	<path d="M37.5,49.969799h-3.9981003V34c0-0.5527-0.4491997-1.0018997-1.0018997-1.0018997h-4
		c-0.5533009,0-1.0014992,0.4491997-1.0014992,1.0018997c0,0.5527992,0.4481983,1.0019989,1.0014992,1.0019989h2.9985008V49.969799
		H27.5c-0.5688992,0-1.0298004,0.4619026-1.0298004,1.030201c0,0.5684013,0.4609013,1.0303001,1.0298004,1.0303001h10
		c0.5682983,0,1.030201-0.4618988,1.030201-1.0303001C38.530201,50.4317017,38.0682983,49.969799,37.5,49.969799z"/>
	<circle cx="31.5" cy="25.0000496" r="3.0000501"/>
	<path d="M56.6477013,15.7945004L41.1185989,0.293C40.9310989,0.1055,40.6618996,0,40.396801,0L10.0934,0.002
		C8.4445,0.002,7,1.3437999,7,2.9932001v57.8754997c0,0.8359032,0.4208999,1.6221008,1.0127001,2.2148018
		C8.6044998,63.6744003,9.4860001,64,10.3219004,64H53.905899c0.7949028,0,1.6012001-0.3095016,2.1637001-0.8720016
		C56.6310997,62.5654984,57,61.8184013,57,61.0245018V16.5014992C57,16.2364006,56.8352013,15.9820004,56.6477013,15.7945004z
		 M40.0834007,2.1155L53.9660988,16H40.0470009C40.1329994,7.6522999,40.1371002,3.8803999,40.0834007,2.1155z M55,61.0245018
		c0,0.2567978-0.1637993,0.508297-0.3448982,0.6898994C54.4710007,61.8984985,54.1666985,62,53.905899,62H10.3219004
		c-0.3022003,0-0.6817007-0.1175995-0.8951006-0.3305016C9.2129002,61.455101,9,61.1708984,9,60.8686981V2.9932001
		c0-0.5464001,0.5396004-0.9912,1.0860004-0.9912L38.0429001,2.0002c0.0489006,2.5220001,0.0215988,10.0921001-0.0304985,14.9890995
		c-0.002903,0.2670994,0.112999,0.5244007,0.3009987,0.7138996C38.5014,17.8931007,38.7691994,18,39.0363007,18H55V61.0245018z"/>
</g>
<g>
</g>
<g>
</g>
<g>
</g>
<g>
</g>
<g>
</g>
<g>
</g>
<g>
</g>
<g>
</g>
<g>
</g>
<g>
</g>
<g>
</g>
<g>
</g>
<g>
</g>
<g>
</g>
<g>
</g>
</svg>
