<?xml version="1.0" encoding="utf-8"?>
<!-- Generator: Adobe Illustrator 19.1.0, SVG Export Plug-In . SVG Version: 6.00 Build 0)  -->
<svg version="1.1" id="Layer_1" xmlns="http://www.w3.org/2000/svg" xmlns:xlink="http://www.w3.org/1999/xlink" x="0px" y="0px"
	 viewBox="0 0 64 64" enable-background="new 0 0 64 64" xml:space="preserve">
<g id="Layers">
	<path d="M56.1496925,32.4988785c0.0639992-1.3761997-0.3894005-2.6881981-1.2464981-3.7515984l0.2397003-0.2180996
		c2.3535004-2.1416016,2.5253983-5.7998009,0.3838005-8.1533012L38.6976051,1.8845797
		c-2.1407127-2.3525-5.798912-2.5253-8.1534119-0.3828001L8.8606949,21.2361794
		c-1.1407003,1.0370998-1.8086004,2.4570007-1.8809004,3.9971008c-0.0732999,1.5410004,0.4580002,3.0165997,1.4961004,4.1571999
		l0.612711,0.6732998c-1.5929999,2.1023006-1.5236111,5.1098003,0.3149996,7.1294003l0.0268888,0.0295982
		c-1.9459996,2.0755005-2.0234995,5.3285027-0.0756998,7.4695015L25.2854939,62.195179
		c0.9911995,1.0898018,2.3476009,1.7285004,3.8203011,1.797802c0.0888119,0.0039978,0.1766987,0.0058975,0.2655983,0.0058975
		c1.375,0,2.6826-0.5048981,3.7059994-1.4365005l20.527401-18.6806984c1.0898132-0.9911995,1.7285004-2.3485985,1.7969017-3.8213005
		c0.0621986-1.3195-0.3623009-2.577198-1.1612015-3.6114006l0.0878983-0.079998
		C55.4328918,35.3640785,56.0793915,33.990078,56.1496925,32.4988785z M10.2063942,22.7146797L31.8898945,2.9803796
		c0.7217121-0.6563001,1.6318989-0.9805,2.5380993-0.9805c1.0253983,0,2.0479012,0.415,2.7910004,1.2305l16.8292007,18.4912014
		c1.3994102,1.5379982,1.2870979,3.9286995-0.2510033,5.3290997L32.112606,46.7859802
		c-1.5391121,1.3984985-3.9287128,1.2860985-5.3301125-0.2509995L11.2444944,29.4622803
		c-0.0222998-0.0307999-0.0313997-0.0674-0.0577002-0.0962009c-0.0261889-0.0287991-0.0615997-0.0412006-0.0900993-0.0662003
		l-1.1423006-1.2551003c-0.6777-0.7451-1.0243998-1.7099991-0.9775-2.7167988
		C9.0246944,24.3211803,9.461195,23.3933792,10.2063942,22.7146797z M25.3039932,47.8806801
		c1.137701,1.25,2.7021999,1.8848,4.272501,1.8848c1.3866997,0,2.7782993-0.4961014,3.8817997-1.5009995l19.9663124-18.1715012
		c0.5006866,0.6658993,0.7665863,1.4689999,0.7270889,2.3111992c-0.045002,0.9580002-0.4600029,1.8408012-1.1690025,2.4863014
		L32.1320953,53.8660812c-0.7080021,0.6434975-1.615202,0.9774971-2.5839005,0.9296989
		c-0.9581013-0.044899-1.839901-0.4599991-2.4854012-1.1689987L10.8820944,35.8474808
		c-1.0906-1.1994019-1.2003002-2.9351997-0.4053001-4.2584019L25.3039932,47.8806801z M53.4046059,39.9666786
		c-0.043911,0.9393997-0.4512138,1.8036995-1.1455116,2.4365005l-20.527401,18.6807022
		c-0.6952991,0.6317978-1.5995998,0.9540977-2.5321999,0.9110985c-0.9384995-0.0438995-1.8027-0.4511986-2.4354992-1.1455002
		L10.8342943,43.3465805c-1.2055998-1.3246002-1.1932001-3.3180008-0.0579996-4.6450005l14.8069992,16.2709007
		c1.0049,1.1044998,2.3789005,1.7509995,3.8710995,1.8213005c0.0897999,0.0038986,0.1787014,0.006897,0.2686005,0.006897
		c1.3924999,0,2.7176991-0.5117989,3.7548008-1.4561005L52.761795,37.7947807
		C53.206295,38.4291801,53.4413948,39.180378,53.4046059,39.9666786z"/>
	<path d="M17.2766953,25.6306801c0.2411995,0,0.4833984-0.0869007,0.6756992-0.262701l16.6093998-15.2245998
		c0.4071999-0.3729992,0.4346008-1.0057993,0.0615005-1.4129992c-0.3730011-0.4063005-1.0048027-0.4346008-1.413002-0.0616007
		L16.6008949,23.8933792c-0.4071999,0.3731003-0.4346008,1.0059013-0.0615005,1.4131012
		C16.7366066,25.5213795,17.0061951,25.6306801,17.2766953,25.6306801z"/>
</g>
<g>
</g>
<g>
</g>
<g>
</g>
<g>
</g>
<g>
</g>
<g>
</g>
<g>
</g>
<g>
</g>
<g>
</g>
<g>
</g>
<g>
</g>
<g>
</g>
<g>
</g>
<g>
</g>
<g>
</g>
</svg>
