<?xml version="1.0" encoding="utf-8"?>
<!-- Generator: Adobe Illustrator 19.1.0, SVG Export Plug-In . SVG Version: 6.00 Build 0)  -->
<svg version="1.1" id="Layer_1" xmlns="http://www.w3.org/2000/svg" xmlns:xlink="http://www.w3.org/1999/xlink" x="0px" y="0px"
	 viewBox="0 0 64 64" enable-background="new 0 0 64 64" xml:space="preserve">
<g id="Link-chains">
	<path d="M56.1697006,10.5212574C55.7126999,8.8132582,54.618,7.3864579,53.0876999,6.5036578l-9.7275009-5.6162
		c-1.5303001-0.8838-3.3144989-1.1180999-5.0205994-0.6611c-1.7070007,0.458-3.1347008,1.5527-4.0185013,3.0840001
		L21.9655991,24.7107582c-0.8838005,1.5301991-1.1191006,3.3134003-0.6611004,5.0205002
		c0.4580002,1.7069988,1.5527,3.1338005,3.0839996,4.017498l7.5703011,4.3721008
		c0.157198,0.0908012,0.3290997,0.1338005,0.4989986,0.1338005c0.3456993,0,0.6817017-0.1786995,0.8671989-0.5
		c0.2764015-0.4785004,0.1123009-1.0898018-0.3661995-1.3661995l-7.5702991-4.3721008
		c-1.0683994-0.6161995-1.8330002-1.612299-2.1523991-2.8027c-0.3192997-1.1903992-0.155201-2.4345989,0.4618988-3.5028992
		L36.0534973,4.3103576c0.6172028-1.0683999,1.6123009-1.8329999,2.8037033-2.1523998
		c1.1894989-0.3183,2.4355965-0.1552,3.5029984,0.4619l9.7275009,5.6162996
		c1.0673981,0.6162004,1.8311005,1.6113005,2.1503983,2.8027c0.3193016,1.1914005,0.1553001,2.4355001-0.4618988,3.5039005
		l-6.3652992,11.0243998c-0.2763023,0.4785004-0.1123009,1.0897999,0.3661995,1.3661995
		c0.4755974,0.2754002,1.0888977,0.1123009,1.3662987-0.3661995l6.3652-11.0243998
		C56.3923988,14.0124578,56.627697,12.2292576,56.1697006,10.5212574z"/>
	<path d="M39.6082001,30.2507572l-8.8691006-5.1201c-0.4786015-0.2763996-1.089901-0.112299-1.3662014,0.3662014
		c-0.2763996,0.4784985-0.1124001,1.0897999,0.3662014,1.3661995l8.8691006,5.1201
		c2.2040977,1.2734985,2.9618988,4.1026001,1.6884995,6.3066978L27.9411983,59.690258
		c-0.6161995,1.0682983-1.6112995,1.8320007-2.8027,2.1512985c-1.1894989,0.3184013-2.4335995,0.1562996-3.5019989-0.4608994
		l-9.7275009-5.6161995c-2.2040997-1.2734985-2.9629002-4.1026001-1.6904001-6.3067017l6.365201-11.0243988
		c0.2763996-0.4785004,0.112299-1.089798-0.3662014-1.3661995c-0.4775991-0.2764015-1.0898991-0.1133003-1.3661995,0.3661995
		L8.4860983,48.457756c-1.8231997,3.1592026-0.7362995,7.2139015,2.4229002,9.0391006l9.7275009,5.6161995
		c1.0195999,0.5879021,2.1504002,0.8886986,3.2958984,0.8886986c0.575201,0,1.1543007-0.0751953,1.7246017-0.2284966
		c1.7070999-0.4570999,3.1337986-1.5527992,4.0165997-3.0830002L42.0290985,39.289856
		C43.8532982,36.1316566,42.7673988,32.0769577,39.6082001,30.2507572z"/>
</g>
<g>
</g>
<g>
</g>
<g>
</g>
<g>
</g>
<g>
</g>
<g>
</g>
<g>
</g>
<g>
</g>
<g>
</g>
<g>
</g>
<g>
</g>
<g>
</g>
<g>
</g>
<g>
</g>
<g>
</g>
</svg>
