<?xml version="1.0" encoding="utf-8"?>
<!-- Generator: Adobe Illustrator 19.1.0, SVG Export Plug-In . SVG Version: 6.00 Build 0)  -->
<svg version="1.1" id="Layer_1" xmlns="http://www.w3.org/2000/svg" xmlns:xlink="http://www.w3.org/1999/xlink" x="0px" y="0px"
	 viewBox="0 0 64 64" enable-background="new 0 0 64 64" xml:space="preserve">
<g id="Bulleted-list-frame_1_">
	<path fill-rule="evenodd" clip-rule="evenodd" d="M50.5556602,0.00975H13.4443502
		c-2.9970999,0-5.4345999,2.4756-5.4345999,5.5195003v52.9413986c0,3.0439987,2.4375,5.5195999,5.4345999,5.5195999h37.1113091
		c2.9970894,0,5.4345894-2.4756012,5.4345894-5.5195999V5.5292501C55.9902496,2.4853499,53.5527496,0.00975,50.5556602,0.00975z
		 M54.0097504,58.4706497c0,1.9511986-1.5498009,3.5391006-3.4540901,3.5391006H13.4443502
		c-1.9042997,0-3.4540997-1.5879021-3.4540997-3.5391006V5.5292501c0-1.9511001,1.5497999-3.539,3.4540997-3.539h37.1113091
		c1.9042892,0,3.4540901,1.5879,3.4540901,3.539V58.4706497z"/>
	<path fill-rule="evenodd" clip-rule="evenodd" d="M45.9999504,17.0136509h-16
		c-0.5449009,0-0.9862919,0.4413986-0.9862919,0.9862995c0,0.5450001,0.441391,0.9863987,0.9862919,0.9863987h16
		c0.5449982,0,0.9864006-0.4413986,0.9864006-0.9863987C46.986351,17.4550495,46.5449486,17.0136509,45.9999504,17.0136509z"/>
	<path fill-rule="evenodd" clip-rule="evenodd" d="M45.9999504,31.0136509h-16
		c-0.5449009,0-0.9862919,0.4413986-0.9862919,0.9862995c0,0.5449982,0.441391,0.9864006,0.9862919,0.9864006h16
		c0.5449982,0,0.9864006-0.4414024,0.9864006-0.9864006C46.986351,31.4550495,46.5449486,31.0136509,45.9999504,31.0136509z"/>
	<path fill-rule="evenodd" clip-rule="evenodd" d="M45.9999504,45.013649h-16c-0.5449009,0-0.9862919,0.4414024-0.9862919,0.9863014
		c0,0.5449982,0.441391,0.9864006,0.9862919,0.9864006h16c0.5449982,0,0.9864006-0.4414024,0.9864006-0.9864006
		C46.986351,45.4550514,46.5449486,45.013649,45.9999504,45.013649z"/>
	<circle fill-rule="evenodd" clip-rule="evenodd" cx="19.9999504" cy="17.9999008" r="2.9999499"/>
	<circle fill-rule="evenodd" clip-rule="evenodd" cx="19.9999504" cy="31.9999504" r="3"/>
	<circle fill-rule="evenodd" clip-rule="evenodd" cx="19.9999504" cy="45.9999504" r="3"/>
</g>
<g>
</g>
<g>
</g>
<g>
</g>
<g>
</g>
<g>
</g>
<g>
</g>
<g>
</g>
<g>
</g>
<g>
</g>
<g>
</g>
<g>
</g>
<g>
</g>
<g>
</g>
<g>
</g>
<g>
</g>
</svg>
