<?xml version="1.0" encoding="utf-8"?>
<!-- Generator: Adobe Illustrator 19.1.0, SVG Export Plug-In . SVG Version: 6.00 Build 0)  -->
<svg version="1.1" id="Layer_1" xmlns="http://www.w3.org/2000/svg" xmlns:xlink="http://www.w3.org/1999/xlink" x="0px" y="0px"
	 viewBox="0 0 64 64" enable-background="new 0 0 64 64" xml:space="preserve">
<g id="Magic-wand">
	<path d="M49.8454018,20.2794971l1.9599991-6.8506002c0.1142998-0.3984003-0.0283012-0.8252001-0.3594017-1.0741997
		c-0.3915977-0.2948999-0.3993988-0.3018007-7.7274971,1.7978001l-5.9111023-3.9823999
		c-0.3017998-0.2031002-0.6884995-0.2265005-1.0126991-0.0615005c-0.3232994,0.165-0.532299,0.4921999-0.5449982,0.8555002
		l-0.2519035,7.1230001l-5.6151981,4.3896999c-0.2422009,0.1893997-0.3838005,0.4804001-0.3838005,0.7880993
		c0,0.7000999,0,0.7000999,4.2255993,2.2402l2.0950012,0.7630997c-0.0021019,0.0020008-0.0050011,0.0025005-0.0071983,0.0045013
		l-36,34c-0.4013,0.3788986-0.4199,1.0116997-0.04,1.4131012c0.1963,0.2079964,0.4609,0.3133965,0.7266,0.3133965
		c0.2460999,0,0.4931-0.0907974,0.6865-0.2733994l36-34c0.0179024-0.016901,0.0245018-0.0398998,0.040802-0.0578003
		l2.0676003,5.6739979c0.1240005,0.3408012,0.4237976,0.5879021,0.7831993,0.6445007
		c0.0517998,0.0088005,0.1044998,0.0126991,0.1562004,0.0126991c0.3046989,0,0.5966988-0.1395988,0.7881012-0.3837967
		l4.389698-5.615202l7.1230011-0.2518997c0.3633003-0.0126991,0.6904984-0.2217007,0.8554993-0.5450001
		c0.1650009-0.3241997,0.1416016-0.7118988-0.0615005-1.0126991L49.8454018,20.2794971z M45.3747025,26.0177975
		c-0.2949028,0.0096989-0.5703011,0.1504002-0.752903,0.3827991l-3.5663986,4.5625l-1.982399-5.4414005
		c-0.1006012-0.2773991-0.3193016-0.4960995-0.597702-0.5966988c0,0-3.3330002-1.2138996-5.4403992-1.9824009l4.5625-3.5663986
		c0.232399-0.1826,0.3730011-0.4580002,0.3828011-0.7529011l0.2040977-5.7872l4.8027,3.2354002
		c0.2452011,0.164999,0.5479012,0.2147999,0.8339996,0.1317997c0,0,3.4112015-0.9764996,5.5664024-1.5936995l-1.592701,5.567399
		c-0.0820999,0.2841015-0.0331993,0.5897999,0.1318016,0.8339005l3.2353973,4.8028011L45.3747025,26.0177975z"/>
	<path d="M27.9265003,9.5646973c0.0869007,0.0233994,0.1737995,0.0340996,0.2597008,0.0340996
		c0.4414997,0,0.8458004-0.2948999,0.9648991-0.7411995c0.9346008-3.4883003,4.5371017-5.5713005,8.0243988-4.6338005
		c0.5332031,0.1455002,1.0820999-0.1738,1.2246017-0.707c0.142601-0.5342-0.1738014-1.082-0.7070007-1.2245998
		c-4.5565987-1.2178-9.2538986,1.4931998-10.4735985,6.0478001C27.0769005,8.8732967,27.393301,9.4220972,27.9265003,9.5646973z"/>
	<path d="M63.0280991,23.7071972c-0.2451973-0.4951-0.8466988-0.6982002-1.3398972-0.4510994
		c-0.4951019,0.2451-0.6972008,0.8456993-0.4512024,1.3397999c0.8272018,1.6669998,0.9883003,3.5370998,0.4532013,5.2665997
		c-0.5293007,1.7108994-1.6796989,3.0800991-3.2383003,3.8544979c-0.4950981,0.2451019-0.6973,0.8457031-0.4511986,1.3398018
		c0.1747971,0.3526001,0.5282974,0.5556984,0.8964996,0.5556984c0.1493988,0,0.3008003-0.0331993,0.4433975-0.1044998
		c2.0547028-1.0194969,3.5673027-2.8143997,4.2607002-5.0546989C64.2888031,28.2306976,64.0847015,25.8351974,63.0280991,23.7071972
		z"/>
</g>
<g>
</g>
<g>
</g>
<g>
</g>
<g>
</g>
<g>
</g>
<g>
</g>
<g>
</g>
<g>
</g>
<g>
</g>
<g>
</g>
<g>
</g>
<g>
</g>
<g>
</g>
<g>
</g>
<g>
</g>
</svg>
