<?xml version="1.0" encoding="utf-8"?>
<!-- Generator: Adobe Illustrator 19.1.0, SVG Export Plug-In . SVG Version: 6.00 Build 0)  -->
<svg version="1.1" id="Layer_1" xmlns="http://www.w3.org/2000/svg" xmlns:xlink="http://www.w3.org/1999/xlink" x="0px" y="0px"
	 viewBox="0 0 64 64" enable-background="new 0 0 64 64" xml:space="preserve">
<g id="Map-point_2_">
	<path d="M63.5615997,1.2196534c-0.274498-0.1875-0.6240997-0.2236-0.9306984-0.1025001L42.9921989,8.9266529L22.3565006,1.0653533
		c-0.2432003-0.0928-0.512701-0.0858999-0.75,0.0156001l-21,9C0.2383,10.2382536,0,10.5995531,0,10.9999533v51
		c0,0.342701,0.1758,0.6620979,0.4658,0.8456993C0.6289,62.9481544,0.8135,62.9999542,1,62.9999542
		c0.1465,0,0.294-0.032299,0.4297-0.0967026l20.5917988-9.8056984l20.5849991,8.8213005
		c0.2558022,0.1104012,0.5488014,0.107399,0.8036995-0.0068016l20-9C63.7695999,52.7499542,64,52.3934517,64,51.9999542V2.0468533
		C64,1.7157533,63.8359985,1.4051533,63.5615997,1.2196534z M23.0107994,3.4545534l18.9785004,7.2306995v48.7938995
		l-18.9785004-8.1335983V3.4545534z M2,11.659153l18.9892998-8.1382999v47.8523979L2,60.4159546V11.659153z M62,51.3534546
		l-17.9892006,8.0954971v-48.774498L62,3.5204532V51.3534546z"/>
	<path d="M52.5586014,43.9999542l-3.2793007,3.2793007c-0.3973999,0.3983994-0.3973999,1.0429001,0,1.4413986
		C49.4785004,48.9198532,49.7392998,49.0184517,50,49.0184517c0.2607994,0,0.5214996-0.0985985,0.7206993-0.2977982L54,45.4413528
		l3.2793007,3.2793007C57.4785004,48.9198532,57.7392998,49.0184517,58,49.0184517
		c0.2607994,0,0.5214996-0.0985985,0.7206993-0.2977982c0.3974991-0.3984985,0.3974991-1.0429993,0-1.4413986l-3.2793007-3.2793007
		l3.2793007-3.2793007c0.3974991-0.3984985,0.3974991-1.0429993,0-1.4413986c-0.3983994-0.3985023-1.0429001-0.3985023-1.4413986,0
		L54,42.5585518l-3.2793007-3.2792969c-0.3983994-0.3985023-1.0429001-0.3985023-1.4413986,0
		c-0.3973999,0.3983994-0.3973999,1.0429001,0,1.4413986L52.5586014,43.9999542z"/>
</g>
<g>
</g>
<g>
</g>
<g>
</g>
<g>
</g>
<g>
</g>
<g>
</g>
<g>
</g>
<g>
</g>
<g>
</g>
<g>
</g>
<g>
</g>
<g>
</g>
<g>
</g>
<g>
</g>
<g>
</g>
</svg>
