<?xml version="1.0" encoding="utf-8"?>
<!-- Generator: Adobe Illustrator 19.1.0, SVG Export Plug-In . SVG Version: 6.00 Build 0)  -->
<svg version="1.1" id="Layer_1" xmlns="http://www.w3.org/2000/svg" xmlns:xlink="http://www.w3.org/1999/xlink" x="0px" y="0px"
	 viewBox="0 0 64 64" enable-background="new 0 0 64 64" xml:space="preserve">
<g id="Map-geo-tag_2_">
	<path d="M61.5791016,21.1548653c-0.2646027-0.1875-0.6035004-0.2334003-0.9091034-0.1289005l-18.1691971,6.3592014
		c2.6016998-5.0606003,4.7882996-10.3452015,4.7882996-13.828001c0-7.4598999-6.0684013-13.5282993-13.5283012-13.5282993
		c-7.4599991,0-13.5282993,6.0683999-13.5282993,13.5282993c0,6.0381012,6.5732002,17.5079002,10.4960995,23.8125019
		c0.6337013,1.0625,1.7938995,1.7216988,3.0312004,1.7216988c0.0009995,0,0.0019989,0,0.0038986,0
		c1.2412033,0,2.4053001-0.6631012,3.0254021-1.7129021C37.7458,35.8409653,38.8611984,33.9927635,40,31.9935646v29.6124992
		l-17-5.3680992V23.9702663c0-0.0545006-0.0224991-0.1015015-0.030899-0.1537018
		c-0.0078011-0.0492992-0.0004005-0.0979996-0.0159016-0.1470985c-0.0046997-0.014801-0.0163994-0.0248013-0.0216999-0.0393009
		c-0.0254002-0.0695-0.0648003-0.1278992-0.1042004-0.1891994c-0.0319996-0.0500011-0.0580997-0.1021004-0.0976982-0.1448994
		c-0.0433006-0.0469017-0.0963001-0.0797005-0.1478004-0.1176014c-0.0526009-0.0387001-0.1007996-0.0800991-0.1597004-0.1077003
		c-0.0515995-0.0242996-0.1082993-0.0332985-0.1643009-0.0485001c-0.0710983-0.0195999-0.1392994-0.0398998-0.2139988-0.0431995
		c-0.0153999-0.0007-0.0283012-0.0087986-0.0438004-0.0087986c-0.0531006,0-0.0988998,0.0221996-0.1497993,0.0301991
		c-0.0506001,0.0079002-0.1007004,0.0004997-0.1508999,0.0167007l-19,6C2.2832,29.1480656,2,29.5337658,2,29.9702663v33
		c0,0.3184013,0.1524,0.6182022,0.4092,0.8067017c0.1729,0.1268997,0.3809001,0.1932983,0.5908,0.1932983
		c0.1006,0,0.2021999-0.0155983,0.3008001-0.0467987L22,58.019165l18.6992989,5.9043007
		c0.2050018,0.0663986,0.4277,0.0634003,0.6308022-0.0088005l20-7C61.7314987,56.7739639,62,56.3950653,62,55.9702644v-34
		C62,21.6460648,61.8428001,21.3423653,61.5791016,21.1548653z M35.080101,36.3403664
		c-0.2744026,0.4638977-0.7783012,0.7509995-1.3174019,0.7509995c-0.0009003,0-0.0009003,0-0.0018997,0
		c-0.5391006,0-1.0429993-0.2871017-1.3173981-0.75c-0.002903-0.0068016-0.0068016-0.0126991-0.0116997-0.0195007
		c-6.4815025-10.4179993-10.1992016-18.7157993-10.1992016-22.7646999c0-6.3563995,5.1718006-11.5282993,11.5282993-11.5282993
		c6.3563995,0,11.5283012,5.1719003,11.5283012,11.5282993C45.2891006,17.6079655,41.5723,25.9058647,35.080101,36.3403664z
		 M4,30.7026653l17-5.3684998v30.9037991L4,61.6060638V30.7026653z M60,55.2603645l-18,6.3003998V29.6801662l18-6.3007011
		V55.2603645z"/>
	<path d="M33.7616005,6.0410652c-3.4596004,0-6.2642002,2.8045006-6.2642002,6.2642002
		c0,3.4596004,2.8045998,6.2640991,6.2642002,6.2640991s6.2641983-2.8044987,6.2641983-6.2640991
		C40.0257988,8.8455658,37.221199,6.0410652,33.7616005,6.0410652z M33.7616005,16.5693645
		c-2.3513012,0-4.2642002-1.912899-4.2642002-4.2640991c0-2.3513002,1.912899-4.2642002,4.2642002-4.2642002
		s4.2641983,1.9129,4.2641983,4.2642002C38.0257988,14.6564655,36.1128998,16.5693645,33.7616005,16.5693645z"/>
</g>
<g>
</g>
<g>
</g>
<g>
</g>
<g>
</g>
<g>
</g>
<g>
</g>
<g>
</g>
<g>
</g>
<g>
</g>
<g>
</g>
<g>
</g>
<g>
</g>
<g>
</g>
<g>
</g>
<g>
</g>
</svg>
