<?xml version="1.0" encoding="utf-8"?>
<!-- Generator: Adobe Illustrator 19.1.0, SVG Export Plug-In . SVG Version: 6.00 Build 0)  -->
<svg version="1.1" id="Layer_1" xmlns="http://www.w3.org/2000/svg" xmlns:xlink="http://www.w3.org/1999/xlink" x="0px" y="0px"
	 viewBox="0 0 64 64" enable-background="new 0 0 64 64" xml:space="preserve">
<g id="Microphone">
	<path d="M48.0000496,27.0200005c-0.5371017,0-0.9726982,0.4356003-0.9726982,0.9727001v4.2109013
		c0,8.1699982-6.7412033,14.8163986-15.0273018,14.8163986c-8.2861996,0-15.0273991-6.6464005-15.0273991-14.8163986v-4.2109013
		c0-0.5370998-0.4354992-0.9727001-0.9726009-0.9727001c-0.5370989,0-0.9726992,0.4356003-0.9726992,0.9727001v4.2109013
		c0,8.9091988,7.0810003,16.1965981,15.9735994,16.7117996c-0.0021,0.0268974-0.0156002,0.0497971-0.0156002,0.0772972v13.0049019
		h-9.9853001c-0.549778,0-0.9951,0.4453011-0.9951,0.9950981c0,0.5498009,0.445322,0.9951019,0.9951,0.9951019h10.9032211
		c0.0333786,0.0033989,0.0623798,0.0195007,0.0967789,0.0195007c0.0343018,0,0.0633011-0.0161018,0.0968018-0.0195007h10.9031982
		c0.5498009,0,0.9951019-0.4453011,0.9951019-0.9951019c0-0.5497971-0.4453011-0.9950981-0.9951019-0.9950981h-9.9854012V48.9926987
		c0-0.0275002-0.0135002-0.0503998-0.0155983-0.0772972c8.892601-0.5152016,15.9735985-7.8026009,15.9735985-16.7117996v-4.2109013
		C48.9726486,27.4556007,48.5371513,27.0200005,48.0000496,27.0200005z"/>
	<path d="M32.0000496,41.9926987c6.0750999,0,11-4.9249001,11-10.9999981v-20c0-6.0750995-4.9249001-11-11-11
		c-6.0751991,0-11,4.9249001-11,11v20C21.0000496,37.0677986,25.9248505,41.9926987,32.0000496,41.9926987z M23.0000496,10.9926996
		c0-4.9626994,4.0373001-9,9-9c4.9626007,0,9,4.0373001,9,9v2.0381002h-8c-0.5312996,0-0.9618988,0.4306002-0.9618988,0.9618998
		c0,0.5312004,0.4305992,0.9619007,0.9618988,0.9619007h8v4.0761995h-8c-0.5312996,0-0.9618988,0.4305992-0.9618988,0.9619007
		c0,0.5311985,0.4305992,0.9618988,0.9618988,0.9618988h8v4.0762005h-8c-0.5312996,0-0.9618988,0.4305992-0.9618988,0.9619007
		c0,0.5311985,0.4305992,0.9618988,0.9618988,0.9618988h8v4.0381012c0,4.9625988-4.0373993,8.9999981-9,8.9999981
		c-4.9626999,0-9-4.0373993-9-8.9999981V10.9926996z"/>
</g>
<g>
</g>
<g>
</g>
<g>
</g>
<g>
</g>
<g>
</g>
<g>
</g>
<g>
</g>
<g>
</g>
<g>
</g>
<g>
</g>
<g>
</g>
<g>
</g>
<g>
</g>
<g>
</g>
<g>
</g>
</svg>
