<?xml version="1.0" encoding="utf-8"?>
<!-- Generator: Adobe Illustrator 19.1.0, SVG Export Plug-In . SVG Version: 6.00 Build 0)  -->
<svg version="1.1" id="Layer_1" xmlns="http://www.w3.org/2000/svg" xmlns:xlink="http://www.w3.org/1999/xlink" x="0px" y="0px"
	 viewBox="0 0 64 64" enable-background="new 0 0 64 64" xml:space="preserve">
<g id="Desktop">
	<path d="M33.9999504,43h-4c-0.5527,0-1,0.4472008-1,1c0,0.5527,0.4473,1,1,1h4c0.5527992,0,1-0.4473,1-1
		C34.9999504,43.4472008,34.5527496,43,33.9999504,43z"/>
	<path d="M60.0001488,4H3.99985c-2.2091,0-4,1.7908001-4,4v38c0,2.2090988,1.7909,4,4,4h21.0001011v8h-2c-0.5527,0-1,0.4472008-1,1
		c0,0.5527,0.4473,1,1,1h18c0.5527992,0,1-0.4473,1-1c0-0.5527992-0.4472008-1-1-1h-2v-8h21.0001984
		c2.2091026,0,4.0000038-1.7909012,4.0000038-4V8C64.0001526,5.7908001,62.2092514,4,60.0001488,4z M36.9999504,58h-10v-8h10V58z
		 M62.0001488,46c0,1.1026993-0.8971977,2-2,2H3.99985c-1.1028001,0-2-0.8973007-2-2V8c0-1.1027999,0.8971999-2,2-2h56.0002975
		c1.1028023,0,2,0.8972001,2,2V46z"/>
	<path d="M55.9999504,10h-48c-1.1044998,0-2,0.8954-2,2v26c0,1.1044998,0.8955002,2,2,2h48c1.104599,0,2-0.8955002,2-2V12
		C57.9999504,10.8954,57.1045494,10,55.9999504,10z M55.9999504,38h-48V12h48V38z"/>
</g>
<g>
</g>
<g>
</g>
<g>
</g>
<g>
</g>
<g>
</g>
<g>
</g>
<g>
</g>
<g>
</g>
<g>
</g>
<g>
</g>
<g>
</g>
<g>
</g>
<g>
</g>
<g>
</g>
<g>
</g>
</svg>
