<?xml version="1.0" encoding="utf-8"?>
<!-- Generator: Adobe Illustrator 19.1.0, SVG Export Plug-In . SVG Version: 6.00 Build 0)  -->
<svg version="1.1" id="Layer_1" xmlns="http://www.w3.org/2000/svg" xmlns:xlink="http://www.w3.org/1999/xlink" x="0px" y="0px"
	 viewBox="0 0 64 64" enable-background="new 0 0 64 64" xml:space="preserve">
<path id="Mouse-pc" d="M35,15.5974503h-2.1703224V1.40255c0-0.5527-0.4473-1-0.9999981-1c-0.5526791,0-1,0.4473-1,1v14.1949005H29
	c-6.6275215,0-12,5.3724995-12,12v24c0,6.6273003,5.3724785,12,12,12h6c6.6273804,0,12-5.3726997,12-12v-24
	C47,20.9699497,41.6273804,15.5974503,35,15.5974503z M35,17.5974503c5.5139999,0,10,4.485899,10,10v7.7504005H32.8296776
	v-1.6543999h1.0059013c1.1044998,0,2-0.895401,2-2v-8c0-1.1045017-0.8955002-2-2-2h-1.0059013v-4.0960007H35z
	 M33.8355789,23.6934509v8h-4v-8H33.8355789z M29,17.5974503h1.8296795v4.0960007h-0.9941006c-1.104578,0-2,0.8954983-2,2v8
	c0,1.104599,0.895422,2,2,2h0.9941006v1.6543999H19v-7.7504005C19,22.0833492,23.4858799,17.5974503,29,17.5974503z M35,61.5974503
	h-6c-5.5141201,0-10-4.4860001-10-10V37.3478508h26v14.2495995C45,57.1114502,40.5139999,61.5974503,35,61.5974503z"/>
<g>
</g>
<g>
</g>
<g>
</g>
<g>
</g>
<g>
</g>
<g>
</g>
<g>
</g>
<g>
</g>
<g>
</g>
<g>
</g>
<g>
</g>
<g>
</g>
<g>
</g>
<g>
</g>
<g>
</g>
</svg>
