<?xml version="1.0" encoding="utf-8"?>
<!-- Generator: Adobe Illustrator 19.1.0, SVG Export Plug-In . SVG Version: 6.00 Build 0)  -->
<svg version="1.1" id="Layer_1" xmlns="http://www.w3.org/2000/svg" xmlns:xlink="http://www.w3.org/1999/xlink" x="0px" y="0px"
	 viewBox="0 0 64 64" enable-background="new 0 0 64 64" xml:space="preserve">
<g id="Mouse-mac">
	<path d="M32,22.6020508c-1.5918007,0-2.8866997,1.294899-2.8866997,2.8866997c0,1.5917988,1.294899,2.8866997,2.8866997,2.8866997
		s2.8866997-1.2949009,2.8866997-2.8866997C34.8866997,23.8969498,33.5918007,22.6020508,32,22.6020508z M32,26.6020508
		c-0.6133003,0-1.1133003-0.5-1.1133003-1.1133003s0.5-1.1133003,1.1133003-1.1133003s1.1133003,0.5,1.1133003,1.1133003
		S32.6133003,26.6020508,32,26.6020508z"/>
	<path d="M35,15.4887505h-2.0224991v-14c0-0.54-0.4375-0.9775-0.9775009-0.9775c-0.5401001,0-0.9775829,0.4375-0.9775829,0.9775v14
		H29c-6.6275005,0-12,5.3725986-12,12v24c0,6.6274986,5.3724995,12,12,12h6c6.6274185,0,12-5.3725014,12-12v-24
		C47,20.8613491,41.6274185,15.4887505,35,15.4887505z M45,51.4887505c0,5.5140991-4.4860001,10-10,10h-6
		c-5.5140991,0-10-4.4859009-10-10v-24c0-5.5139999,4.4859009-10,10-10h6c5.5139999,0,10,4.4860001,10,10V51.4887505z"/>
</g>
<g>
</g>
<g>
</g>
<g>
</g>
<g>
</g>
<g>
</g>
<g>
</g>
<g>
</g>
<g>
</g>
<g>
</g>
<g>
</g>
<g>
</g>
<g>
</g>
<g>
</g>
<g>
</g>
<g>
</g>
</svg>
