<?xml version="1.0" encoding="utf-8"?>
<!-- Generator: Adobe Illustrator 19.1.0, SVG Export Plug-In . SVG Version: 6.00 Build 0)  -->
<svg version="1.1" id="Layer_1" xmlns="http://www.w3.org/2000/svg" xmlns:xlink="http://www.w3.org/1999/xlink" x="0px" y="0px"
	 viewBox="0 0 64 64" enable-background="new 0 0 64 64" xml:space="preserve">
<path id="Net" d="M58.5,47.1333504v-8.2667007c0-0.5527-0.4473-1-1-1h-7.7626991v-8H55v-12H43v5.2979012H32.7881012v-6.2979012
	h5.0000992v-12h-12v12h4.9998989v6.2979012H20v-5.2979012H8v12h4.7372999v8H6c-0.5528002,0-1,0.4473-1,1v8.2667007H0v12h12v-12H7
	v-7.2667007h14v7.2667007h-5v12h12v-12h-5v-8.2667007c0-0.5527-0.4473-1-1-1h-7.2627001v-8H20v-4.7020988h23v4.7020988h4.7373009v8
	H40.5c-0.5527992,0-1,0.4473-1,1v8.2667007H34v12h12v-12h-4.5v-7.2667007h15v7.2667007H52v12h12v-12H58.5z M27.7882004,6.8666501h8
	v7.9999995h-8V6.8666501z M10,57.1333504H2v-8h8V57.1333504z M26,57.1333504h-8v-8h8V57.1333504z M18,27.8666496h-8v-8h8V27.8666496
	z M45,19.8666496h8v8h-8V19.8666496z M44,57.1333504h-8v-8h8V57.1333504z M62,57.1333504h-8v-8h8V57.1333504z"/>
<g>
</g>
<g>
</g>
<g>
</g>
<g>
</g>
<g>
</g>
<g>
</g>
<g>
</g>
<g>
</g>
<g>
</g>
<g>
</g>
<g>
</g>
<g>
</g>
<g>
</g>
<g>
</g>
<g>
</g>
</svg>
