<?xml version="1.0" encoding="utf-8"?>
<!-- Generator: Adobe Illustrator 19.1.0, SVG Export Plug-In . SVG Version: 6.00 Build 0)  -->
<svg version="1.1" id="Layer_1" xmlns="http://www.w3.org/2000/svg" xmlns:xlink="http://www.w3.org/1999/xlink" x="0px" y="0px"
	 viewBox="0 0 64 64" enable-background="new 0 0 64 64" xml:space="preserve">
<path id="Paper-plane" d="M63.6048431,0.9419135c-0.3022995-0.2304-0.7104988-0.2685-1.0522995-0.0986l-62,31
	c-0.3262,0.1630993-0.5381,0.4912014-0.5517,0.8560009c-0.0142,0.3647003,0.1713,0.7084999,0.4843,0.8959999l21.6578007,12.9945984
	v15.671402c0,0.4188995,0.2607002,0.7929001,0.6527996,0.9375c0.1133003,0.0419998,0.2308998,0.0625,0.3472004,0.0625
	c0.2860985,0,0.5653992-0.1231003,0.7591991-0.3496017l8.761301-10.2206993l18.0257988,10.4355011
	c0.2798004,0.1630974,0.6211014,0.1796989,0.9151001,0.044899c0.2938995-0.1338005,0.5052986-0.4012985,0.5674019-0.7187004
	L63.9812431,1.9292135C64.0545425,1.5552136,63.9085426,1.1724136,63.6048431,0.9419135z M59.3650436,4.6731133
	L21.1402435,43.6558151L3.0764437,32.8174133L59.3650436,4.6731133z M24.1429443,59.5582123V47.7579117l6.7596989,3.9135017
	L24.1429443,59.5582123z M50.4773445,60.6929131l-26.826601-15.5307007l-0.7470989-0.4482994L61.2200432,5.6377134
	L50.4773445,60.6929131z"/>
<g>
</g>
<g>
</g>
<g>
</g>
<g>
</g>
<g>
</g>
<g>
</g>
<g>
</g>
<g>
</g>
<g>
</g>
<g>
</g>
<g>
</g>
<g>
</g>
<g>
</g>
<g>
</g>
<g>
</g>
</svg>
