<?xml version="1.0" encoding="utf-8"?>
<!-- Generator: Adobe Illustrator 19.1.0, SVG Export Plug-In . SVG Version: 6.00 Build 0)  -->
<svg version="1.1" id="Layer_1" xmlns="http://www.w3.org/2000/svg" xmlns:xlink="http://www.w3.org/1999/xlink" x="0px" y="0px"
	 viewBox="0 0 64 64" enable-background="new 0 0 64 64" xml:space="preserve">
<g id="Flash-drive-rotated">
	<path d="M55.3844452,6.4637299L44.4186478,0.1318298c-0.2266006-0.1309-0.4962997-0.1661-0.7474022-0.0977
		c-0.2519989,0.0674-0.4669991,0.2325-0.5979004,0.4582L34.859745,14.7174301l-4.6299992-2.6731005
		c-0.2266006-0.1308994-0.4953003-0.1669998-0.7474003-0.0977001c-0.2519989,0.0674-0.4669991,0.2325001-0.5978985,0.4582005
		L9.1110458,46.6573296c-0.9818993,1.6950989-1.2426996,3.6725006-0.7336998,5.5679016
		c0.5060997,1.8914986,1.7195005,3.4731979,3.4165001,4.4550972l10.9862995,6.342701
		c1.1207008,0.6467018,2.3644009,0.9770012,3.6257,0.9770012c0.6321011,0,1.2681007-0.0830994,1.8943996-0.2511024
		c1.8494015-0.4953995,3.4584999-1.7312965,4.4139996-3.3881989l19.8086014-34.308197
		c0.2715988-0.4708996,0.1104012-1.0727997-0.3605003-1.3453007l-4.6306992-2.6735001l8.2132988-14.2247
		C56.0165443,7.33813,55.8553467,6.73633,55.3844452,6.4637299z M31.0084457,59.3768311
		c-0.6966,1.2085991-1.8699989,2.1083984-3.2173004,2.4698982c-1.3676987,0.3683014-2.7989998,0.1787987-4.0261993-0.5295982
		l-10.9853001-6.3416023c-1.2417002-0.7180977-2.1297998-1.8759003-2.5010996-3.2602997
		c-0.3712997-1.3862991-0.1807003-2.8322983,0.5374002-4.0720978L30.097847,14.24263l5.9307976,3.424099l9.6650009,5.580801
		c0.0013008,0.0007992,0.0027008,0.0009003,0.0040016,0.0016994l4.6269989,2.6714001L31.0084457,59.3768311z M45.8258476,21.0487289
		l-7.7855034-4.4948997l-1.4747963-0.8515997l7.721199-13.3720999l9.2599983,5.3471003L45.8258476,21.0487289z"/>
	<path d="M43.3772469,14.5982294c0.1553001,0.0889006,0.3242989,0.1319008,0.4913979,0.1319008
		c0.3400002,0,0.6711998-0.1769009,0.8539009-0.4924002l2.3740997-4.1121998
		c0.2716026-0.4709005,0.1104012-1.0727005-0.3605003-1.3453007c-0.4718971-0.2697001-1.0727997-0.1104002-1.3453979,0.3605003
		l-2.3740997,4.1121998C42.7450447,13.7238302,42.9062462,14.3256302,43.3772469,14.5982294z"/>
	<path d="M31.755846,22.0644302c-0.471899-0.269701-1.0727005-0.1104012-1.3453007,0.3605003L16.1649456,47.0999298
		c-0.2715998,0.4709015-0.1103992,1.0727005,0.3605003,1.3452988c0.1553993,0.0889015,0.3243999,0.1319008,0.4913998,0.1319008
		c0.3400002,0,0.6711998-0.1767998,0.8539009-0.4924011L32.1163445,23.409729
		C32.3879471,22.9388294,32.2267456,22.3370304,31.755846,22.0644302z"/>
</g>
<g>
</g>
<g>
</g>
<g>
</g>
<g>
</g>
<g>
</g>
<g>
</g>
<g>
</g>
<g>
</g>
<g>
</g>
<g>
</g>
<g>
</g>
<g>
</g>
<g>
</g>
<g>
</g>
<g>
</g>
</svg>
