<?xml version="1.0" encoding="utf-8"?>
<!-- Generator: Adobe Illustrator 19.1.0, SVG Export Plug-In . SVG Version: 6.00 Build 0)  -->
<svg version="1.1" id="Layer_1" xmlns="http://www.w3.org/2000/svg" xmlns:xlink="http://www.w3.org/1999/xlink" x="0px" y="0px"
	 viewBox="0 0 64 64" enable-background="new 0 0 64 64" xml:space="preserve">
<path id="Displacer" d="M56.0000496,60.8744736H44.1788483c0.357502-1.2078018,0.5704002-2.4804993,0.5704002-3.8101006
	c0-6.9902-5.2584991-12.6951981-11.9034996-13.1477013V21.2042732l18.9598999-8.9538002
	c0.3496017-0.1650991,0.5732994-0.5176001,0.5732994-0.9042997s-0.2236977-0.7392998-0.5732994-0.9042997L32.29105,1.2260734
	c-0.3096008-0.1474999-0.6728992-0.125-0.9619007,0.0595c-0.2890987,0.1836001-0.4648991,0.5020001-0.4648991,0.8448001v18.4316006
	c0,0.0496998,0.0114002,0.0972004,0.0186005,0.1455002v23.2234001c-6.516901,0.5864983-11.632,6.2380981-11.632,13.1334991
	c0,1.3296013,0.2129002,2.6022987,0.5702991,3.8101006H8.0000496c-0.5507994,0-0.9980998,0.4473-0.9980998,0.9981003
	c0,0.5507011,0.4473004,0.9980011,0.9980998,0.9980011h48c0.5507011,0,0.9980011-0.4473,0.9980011-0.9980011
	C56.9980507,61.3217735,56.5507507,60.8744736,56.0000496,60.8744736z M32.8642502,3.7084734l16.1729012,7.6377001
	l-16.1729012,7.6377001V3.7084734z M32.0000496,45.8725739c5.9271011,0,10.7491989,5.0205994,10.7491989,11.1917992
	c0,1.2639999-0.2050972,2.5009995-0.6107979,3.6919022H21.8615494c-0.4056988-1.1909027-0.6106987-2.4279022-0.6106987-3.6919022
	C21.2508507,50.8931732,26.0728493,45.8725739,32.0000496,45.8725739z"/>
<g>
</g>
<g>
</g>
<g>
</g>
<g>
</g>
<g>
</g>
<g>
</g>
<g>
</g>
<g>
</g>
<g>
</g>
<g>
</g>
<g>
</g>
<g>
</g>
<g>
</g>
<g>
</g>
<g>
</g>
</svg>
