<?xml version="1.0" encoding="utf-8"?>
<!-- Generator: Adobe Illustrator 19.1.0, SVG Export Plug-In . SVG Version: 6.00 Build 0)  -->
<svg version="1.1" id="Layer_1" xmlns="http://www.w3.org/2000/svg" xmlns:xlink="http://www.w3.org/1999/xlink" x="0px" y="0px"
	 viewBox="0 0 64 64" enable-background="new 0 0 64 64" xml:space="preserve">
<g id="Geo-tag">
	<path d="M32,0c-12.1308994,0-22,9.6630001-22,21.5410004c0,10.6102982,13.124999,31.9921989,18.7714005,40.6982002
		C29.4726009,63.3418007,30.6786995,64,32,64c1.3241997,0,2.5331993-0.6601982,3.2275009-1.7569008
		C40.8720016,53.5379982,54,32.1464005,54,21.5410004C54,9.6630001,44.1307983,0,32,0z M33.5438995,61.1640015
		C33.2118988,61.6875,32.6357002,62,32,62c-0.6240997,0-1.2148991-0.3204002-1.5419998-0.8359985
		c-0.0020008-0.002903-0.0039005-0.0058022-0.0058994-0.0088005C24.9043083,52.6015015,12.000001,31.6191006,12.000001,21.5410004
		C12.000001,10.7656002,20.9715996,2,32,2c11.0283089,0,20,8.7656002,20,19.5410004
		C52,31.6131992,39.0965996,52.5996017,33.5438995,61.1640015z"/>
	<path d="M32,9c-6.0655003,0-11,4.9344997-11,11c0,6.0653992,4.9344997,11,11,11c6.0653992,0,11-4.9346008,11-11
		C43,13.9344997,38.0653992,9,32,9z M32,29c-4.9629002,0-9-4.0370998-9-9s4.0370998-9,9-9c4.9627991,0,9,4.0370998,9,9
		S36.9627991,29,32,29z"/>
</g>
<g>
</g>
<g>
</g>
<g>
</g>
<g>
</g>
<g>
</g>
<g>
</g>
<g>
</g>
<g>
</g>
<g>
</g>
<g>
</g>
<g>
</g>
<g>
</g>
<g>
</g>
<g>
</g>
<g>
</g>
</svg>
