<?xml version="1.0" encoding="utf-8"?>
<!-- Generator: Adobe Illustrator 19.1.0, SVG Export Plug-In . SVG Version: 6.00 Build 0)  -->
<svg version="1.1" id="Layer_1" xmlns="http://www.w3.org/2000/svg" xmlns:xlink="http://www.w3.org/1999/xlink" x="0px" y="0px"
	 viewBox="0 0 64 64" enable-background="new 0 0 64 64" xml:space="preserve">
<g id="Scale_2_">
	<path d="M63.0181007,46.5362015H49.9818993V16.5c0-0.5321999-0.4315987-0.9638004-0.9637985-0.9638004H14.9819002V3.5
		c0-0.5322001-0.4316006-0.9638-0.9638004-0.9638c-0.5323,0-0.9638996,0.4315999-0.9638996,0.9638v12.0361996H1.0181
		c-0.5323,0-0.9639,0.4316006-0.9639,0.9638004c0,0.5323009,0.4316,0.9638996,0.9639,0.9638996h12.0361004V47.5
		c0,0.532299,0.4315996,0.9639015,0.9638996,0.9639015h34.0360985V60.5c0,0.532299,0.4316025,0.9639015,0.9639015,0.9639015
		c0.5321999,0,0.9637985-0.4316025,0.9637985-0.9639015V48.4639015h13.0362015c0.5321999,0,0.9637985-0.4316025,0.9637985-0.9639015
		C63.9818993,46.9678001,63.5503006,46.5362015,63.0181007,46.5362015z M14.9819002,46.5362015V17.4638996h33.0723v29.0723019
		H14.9819002z"/>
	<path d="M62.0181007,51.5h-8c-0.5527992,0-1,0.4473-1,1v8c0,0.5527992,0.4472008,1,1,1c0.5527,0,1-0.4472008,1-1v-7h7
		c0.5527,0,1-0.4472008,1-1C63.0181007,51.9473,62.5708008,51.5,62.0181007,51.5z"/>
	<path d="M1.0181,12.5h8c0.5527,0,1-0.4471998,1-1v-8c0-0.5527-0.4473-1-1-1c-0.5528002,0-1,0.4473-1,1v7h-7
		c-0.5528001,0-1,0.4473-1,1C0.0181,12.0528002,0.4653,12.5,1.0181,12.5z"/>
</g>
<g>
</g>
<g>
</g>
<g>
</g>
<g>
</g>
<g>
</g>
<g>
</g>
<g>
</g>
<g>
</g>
<g>
</g>
<g>
</g>
<g>
</g>
<g>
</g>
<g>
</g>
<g>
</g>
<g>
</g>
</svg>
