<?xml version="1.0" encoding="utf-8"?>
<!-- Generator: Adobe Illustrator 19.1.0, SVG Export Plug-In . SVG Version: 6.00 Build 0)  -->
<svg version="1.1" id="Layer_1" xmlns="http://www.w3.org/2000/svg" xmlns:xlink="http://www.w3.org/1999/xlink" x="0px" y="0px"
	 viewBox="0 0 64 64" enable-background="new 0 0 64 64" xml:space="preserve">
<g id="Loupe">
	<path d="M53.7602806,35.6955452c7.028801-7.0301018,7.0278015-18.4271011-0.0023003-25.455801
		c-7.030098-7.0288005-18.4270973-7.0279007-25.4557934,0.0021992c-5.8004055,5.8014011-6.800106,14.5709-3.0264053,21.4111004
		L4.9687819,51.960144l7.0709996,7.0710983L32.346981,38.7240448
		C39.1881866,42.4984436,47.9591866,41.4976425,53.7602806,35.6955452z M12.0397816,56.2027435L7.7971873,51.960144
		l18.5755939-18.5755997c0.5754051,0.8079987,1.2066994,1.588501,1.9315987,2.3133011
		c0.7241001,0.7238998,1.5039005,1.3544998,2.3111,1.9292984L12.0397816,56.2027435z M29.7174816,34.282444
		c-6.2378998-6.2378006-6.2382946-16.3880005-0.0009995-22.6264c3.0217037-3.0222998,7.0394993-4.6869001,11.3132-4.6873002
		c4.2737999-0.0004001,8.2918968,1.6635003,11.3141975,4.6853004l0.0008011,0.0007992l0.0003014,0.0003004
		c6.2377968,6.2378006,6.238205,16.3878994,0.0009003,22.6263008c-3.0216942,3.0223007-7.0395012,4.6869011-11.3132019,4.6872978
		C36.7588806,38.9691429,32.7407799,37.3052444,29.7174816,34.282444z"/>
	<path d="M50.2242813,13.7756433c-2.4559021-2.4551992-5.7206993-3.8071995-9.1938019-3.8076
		c-3.4726982,0.0007-6.7374992,1.3528004-9.1923981,3.809c-0.390501,0.3905001-0.3901005,1.0241003,0,1.4142008
		c0.3908997,0.3908997,1.0237007,0.3905001,1.4141998,0c2.0779076-2.0778008,4.8400002-3.2227001,7.7789078-3.2227001
		c2.9381905-0.0007,5.7010918,1.1434994,7.7788925,3.2213993c0.3908005,0.3908005,1.0237007,0.3904009,1.4141998,0
		C50.6147804,14.7994442,50.6143799,14.165844,50.2242813,13.7756433z"/>
</g>
<g>
</g>
<g>
</g>
<g>
</g>
<g>
</g>
<g>
</g>
<g>
</g>
<g>
</g>
<g>
</g>
<g>
</g>
<g>
</g>
<g>
</g>
<g>
</g>
<g>
</g>
<g>
</g>
<g>
</g>
</svg>
