<?xml version="1.0" encoding="utf-8"?>
<!-- Generator: Adobe Illustrator 19.1.0, SVG Export Plug-In . SVG Version: 6.00 Build 0)  -->
<svg version="1.1" id="Layer_1" xmlns="http://www.w3.org/2000/svg" xmlns:xlink="http://www.w3.org/1999/xlink" x="0px" y="0px"
	 viewBox="0 0 64 64" enable-background="new 0 0 64 64" xml:space="preserve">
<g id="Shield_2_">
	<path d="M57.8003502,2.7022376l-9.3223-1.4375c-10.9346008-1.6875-22.0214996-1.6855-32.9561005,0l-9.3221998,1.4375
		c-0.4872999,0.0751998-0.8477001,0.4951-0.8477001,0.9882998v7.1571999c0,20.5761986,9.7256002,40.3604012,26.017601,52.9297028
		c0.1786995,0.1444969,0.4013996,0.2226982,0.6308994,0.2226982c0.0527,0,0.107399-0.0038986,0.1611023-0.0126991
		c0.1727982-0.0284004,0.3330002-0.1016006,0.4657974-0.2080002c16.2940025-12.5684013,26.0205002-32.3535995,26.0205002-52.9317017
		V3.6905375C58.6479492,3.1973376,58.2876511,2.7774374,57.8003502,2.7022376z M56.6479492,10.8477373
		c0,19.7109985-9.1991997,38.6729012-24.6473999,50.8838005C16.5512505,49.5196381,7.3520498,30.5587368,7.3520498,10.8477373
		V4.5479374l8.4745998-1.3065999c10.7314997-1.6562999,21.615303-1.6562999,32.3467026,0l8.4745979,1.3065999V10.8477373z"/>
	<path d="M32.9878502,50.341938c-0.3819008,0.3983994-0.3671989,1.0321999,0.0321999,1.4129982
		c0.1934013,0.1856003,0.4423981,0.277401,0.6903992,0.277401c0.2637024,0,0.5264015-0.1035004,0.722702-0.3096008
		c16.7958984-17.5732002,15.6777-39.8535004,15.6639977-40.0770988c-0.0321999-0.5508003-0.5205002-0.9609995-1.0565987-0.9385004
		c-0.5508003,0.0322008-0.9716988,0.5059004-0.9394989,1.0566006C48.1137505,11.9786377,49.1626511,33.4171371,32.9878502,50.341938
		z"/>
</g>
<g>
</g>
<g>
</g>
<g>
</g>
<g>
</g>
<g>
</g>
<g>
</g>
<g>
</g>
<g>
</g>
<g>
</g>
<g>
</g>
<g>
</g>
<g>
</g>
<g>
</g>
<g>
</g>
<g>
</g>
</svg>
