<?xml version="1.0" encoding="utf-8"?>
<!-- Generator: Adobe Illustrator 19.1.0, SVG Export Plug-In . SVG Version: 6.00 Build 0)  -->
<svg version="1.1" id="Layer_1" xmlns="http://www.w3.org/2000/svg" xmlns:xlink="http://www.w3.org/1999/xlink" x="0px" y="0px"
	 viewBox="0 0 64 64" enable-background="new 0 0 64 64" xml:space="preserve">
<g id="Shield-defense">
	<path d="M31.9891968,54c10.538002-5.6866989,16.5540009-16.6225014,15.9722023-33.6184006
		C42.8532982,17.3001003,37.8219986,15.9998999,32.8512993,16c-5.6835022,0-11.2876015,1.7001991-16.834301,4.3815994
		C15.6380978,36.5834999,21.631197,47.9768982,31.9891968,54z M32.851799,18.0953999
		c4.5359993,0,8.8142967,1.149601,13.0446968,3.5100002C46.1323967,35.8984985,41.4704971,45.9695015,32.0278969,51.5709
		c-9.1620998-5.8350983-13.9592838-16.1100998-13.9325981-29.8509007
		C23.4378986,19.2824001,28.275898,18.0953999,32.851799,18.0953999z"/>
	<path d="M56.9376144,11.3548002C46.1636963,9.2265997,37.5902977,6.3719001,31.9966125,0
		c-6.0459156,6.8204999-14.314415,9.6513996-24.9692154,11.3548002C6.4294982,36.7930984,15.6444979,54.5433998,31.9794979,64
		C48.5964966,55.0709,57.8557968,38.039299,56.9376144,11.3548002z M32.0161972,61.6864014
		C16.7960987,52.3843002,8.8663979,35.6195984,9.0092983,13.0598001c8.2084999-1.4250002,16.5013142-3.809,22.9917011-10.1552
		c6.0121994,5.7658997,14.4761963,8.3334999,22.9729958,10.1005001
		C55.4246979,36.4029999,47.7061958,52.7681999,32.0161972,61.6864014z"/>
</g>
<g>
</g>
<g>
</g>
<g>
</g>
<g>
</g>
<g>
</g>
<g>
</g>
<g>
</g>
<g>
</g>
<g>
</g>
<g>
</g>
<g>
</g>
<g>
</g>
<g>
</g>
<g>
</g>
<g>
</g>
</svg>
