<?xml version="1.0" encoding="utf-8"?>
<!-- Generator: Adobe Illustrator 19.1.0, SVG Export Plug-In . SVG Version: 6.00 Build 0)  -->
<svg version="1.1" id="Layer_1" xmlns="http://www.w3.org/2000/svg" xmlns:xlink="http://www.w3.org/1999/xlink" x="0px" y="0px"
	 viewBox="0 0 64 64" enable-background="new 0 0 64 64" xml:space="preserve">
<g id="Mobile-signal">
	<path d="M25.6020508,51.0956993c-2.1533012,0-3.9043007,1.7509995-3.9043007,3.9033012
		c0,2.1534004,1.7509995,3.9053001,3.9043007,3.9053001s3.9042988-1.7518997,3.9042988-3.9053001
		C29.5063496,52.8466988,27.7553501,51.0956993,25.6020508,51.0956993z M25.6020508,57.0956993
		c-1.1553001,0-2.0957012-0.9403992-2.0957012-2.0966988c0-1.155201,0.9404011-2.0946999,2.0957012-2.0946999
		s2.0956993,0.9394989,2.0956993,2.0946999C27.6977501,56.1553001,26.7573509,57.0956993,25.6020508,57.0956993z"/>
	<path d="M40.5766487,6.4102001c-0.5527,0-1,0.4471998-1,1c0,0.5527,0.4473,1,1,1c2.9834023,0,5.4111023,2.4277,5.4111023,5.4110994
		c0,0.5527,0.4473,1,1,1c0.5527992,0,1-0.4473,1-1C47.987751,9.7343998,44.6635513,6.4102001,40.5766487,6.4102001z"/>
	<path d="M41.8588486,0c-0.5527,0-1,0.4473-1,1c0,0.5528001,0.4473,1,1,1c5.8115997,0,10.5391006,4.7276001,10.5391006,10.5390997
		c0,0.5527,0.4473,1,1,1s1-0.4473,1-1C54.3979492,5.625,48.7729492,0,41.8588486,0z"/>
	<path d="M37.52285,12H13.6812496c-2.2528992,0-4.0791998,1.8263998-4.0791998,4.0792007v43.8415985
		C9.6020498,62.1736984,11.4283504,64,13.6812496,64H37.52285c2.2528,0,4.0792007-1.8263016,4.0792007-4.0792007V16.0792007
		C41.6020508,13.8263998,39.77565,12,37.52285,12z M13.6812496,14.0396004H37.52285
		c1.1245995,0,2.0396004,0.915,2.0396004,2.0396004v29.9081001H11.6416502V16.0792007
		C11.6416502,14.9546003,12.5566502,14.0396004,13.6812496,14.0396004z M37.52285,61.9603996H13.6812496
		c-1.1245995,0-2.0395994-0.9150009-2.0395994-2.0396004V48.0126991h27.9207993v11.9081001
		C39.5624504,61.0453987,38.6474495,61.9603996,37.52285,61.9603996z"/>
</g>
<g>
</g>
<g>
</g>
<g>
</g>
<g>
</g>
<g>
</g>
<g>
</g>
<g>
</g>
<g>
</g>
<g>
</g>
<g>
</g>
<g>
</g>
<g>
</g>
<g>
</g>
<g>
</g>
<g>
</g>
</svg>
