<?xml version="1.0" encoding="utf-8"?>
<!-- Generator: Adobe Illustrator 19.1.0, SVG Export Plug-In . SVG Version: 6.00 Build 0)  -->
<svg version="1.1" id="Layer_1" xmlns="http://www.w3.org/2000/svg" xmlns:xlink="http://www.w3.org/1999/xlink" x="0px" y="0px"
	 viewBox="0 0 64 64" enable-background="new 0 0 64 64" xml:space="preserve">
<path id="File-transfer_1_" d="M58.5,56.5462608h-15v-3c0-1.1044998-0.8955994-2-2-2h-8v-5h12.902298
	c2.2598,0,4.097702-1.8319969,4.097702-4.0834999V13.5462618c0-0.0214996-0.0110016-0.0394993-0.0122986-0.0607996
	c-0.0056-0.0915003-0.0234032-0.1799002-0.0537033-0.2663002c-0.0109978-0.0312996-0.018486-0.0618-0.0321999-0.0914001
	C50.3535118,13.0237617,38.3250999,0.9813622,38.3222008,0.9778621c-0.0018997-0.0028999-0.0106888-0.0057999-0.0106888-0.0057999
	c-0.6236115-0.551-0.8650017-0.6067001-1.1529121-0.4258l-18.5375996,0.0015C16.3486004,0.5477622,14.5,2.3900621,14.5,4.6546621
	V42.220562c0,2.3852997,1.9472008,4.3256989,4.3408012,4.3256989H31.5v5h-8c-1.1044884,0-2,0.8955002-2,2v3h-16
	c-0.5527997,0-1,0.4477997-1,1c0,0.5522995,0.4472003,1,1,1h16v3c0,1.1044998,0.8955116,2,2,2h18c1.1044006,0,2-0.8955002,2-2v-3h15
	c0.5527,0,1-0.4477005,1-1C59.5,56.9940605,59.0527,56.5462608,58.5,56.5462608z M38.5605125,4.0008621
	c2.0370865,2.0321999,5.5214882,5.5243998,8.5321884,8.5453997h-8.5810013
	C38.5545998,8.3045626,38.5703011,5.662962,38.5605125,4.0008621z M18.8408012,44.5462608
	c-1.2910004,0-2.3408012-1.043499-2.3408012-2.3256989V4.6546621c0-1.1615999,0.9511013-2.1069,2.1210003-2.1069
	l17.9241009-0.0014999c0.0292969,2.0833001-0.007103,7.4702001-0.0442009,10.9897995
	c-0.0028992,0.2665997,0.1016121,0.5239,0.2891006,0.7137995c0.1875114,0.1895008,0.4442978,0.2964001,0.7108994,0.2964001H48.5
	v27.9165001c0,1.1489029-0.9414864,2.0834999-2.097702,2.0834999H18.8408012z M41.5,61.5462608h-18v-8h18V61.5462608z"/>
<g>
</g>
<g>
</g>
<g>
</g>
<g>
</g>
<g>
</g>
<g>
</g>
<g>
</g>
<g>
</g>
<g>
</g>
<g>
</g>
<g>
</g>
<g>
</g>
<g>
</g>
<g>
</g>
<g>
</g>
</svg>
