<?xml version="1.0" encoding="utf-8"?>
<!-- Generator: Adobe Illustrator 19.1.0, SVG Export Plug-In . SVG Version: 6.00 Build 0)  -->
<svg version="1.1" id="Layer_1" xmlns="http://www.w3.org/2000/svg" xmlns:xlink="http://www.w3.org/1999/xlink" x="0px" y="0px"
	 viewBox="0 0 64 64" enable-background="new 0 0 64 64" xml:space="preserve">
<g id="Unboxing_1_">
	<path fill-rule="evenodd" clip-rule="evenodd" d="M63.5,7.5h-18l-5.1428986,13h-0.7905006L33.5,7.5h-33l6.6179051,15.5860004V56.5
		h13.2989998h8.1660938H39.5h2h15.6179047V22.4542999L63.5,7.5z M46.5,9.5h14l-4.5780945,11H42.589798L46.5,9.5z M3.5000007,9.5h29
		l5,11h-29L3.5000007,9.5z M26.1179066,54.5h-4v-14h-4.7635059L24.5,30.3521996L31.6455002,40.5h-5.5275936V54.5z M39.1179047,54.5
		H28.1179066v-12H35.5l-11-15.6215992L13.5,42.5h6.6179066v12H9.1179056v-32h30V54.5z M55.1179047,54.5h-14v-32h14V54.5z"/>
</g>
<g>
</g>
<g>
</g>
<g>
</g>
<g>
</g>
<g>
</g>
<g>
</g>
<g>
</g>
<g>
</g>
<g>
</g>
<g>
</g>
<g>
</g>
<g>
</g>
<g>
</g>
<g>
</g>
<g>
</g>
</svg>
