<?xml version="1.0" encoding="utf-8"?>
<!-- Generator: Adobe Illustrator 19.1.0, SVG Export Plug-In . SVG Version: 6.00 Build 0)  -->
<svg version="1.1" id="Layer_1" xmlns="http://www.w3.org/2000/svg" xmlns:xlink="http://www.w3.org/1999/xlink" x="0px" y="0px"
	 viewBox="0 0 64 64" enable-background="new 0 0 64 64" xml:space="preserve">
<g id="Wifi-point">
	<path d="M47.0029984,22.3251743c0.1953011,0.1953011,0.4511032,0.2930012,0.7070007,0.2930012
		c0.2558022,0,0.5116997-0.0977001,0.7070007-0.2930012c1.3291016-1.3281002,2.0615005-3.0946999,2.0615005-4.9745998
		s-0.732399-3.6464996-2.0615005-4.9745998c-0.3905983-0.3905993-1.0233994-0.3905993-1.4140015,0
		c-0.3906975,0.3906002-0.3906975,1.0234003,0,1.4141006c0.9511032,0.9510994,1.475502,2.2157993,1.475502,3.5604992
		s-0.5243988,2.6093998-1.475502,3.5606003C46.6123009,21.301775,46.6123009,21.9345741,47.0029984,22.3251743z"/>
	<path d="M16.0468998,22.6181755c0.2558994,0,0.5116997-0.0977001,0.7070007-0.2930012
		c0.3906994-0.3906002,0.3906994-1.0233994,0-1.4139996c-1.9629002-1.9629002-1.9629002-5.1581993,0-7.1210995
		c0.3906994-0.3907003,0.3906994-1.0235004,0-1.4141006c-0.3906002-0.3905993-1.0234003-0.3905993-1.4140005,0
		c-2.7432003,2.7432003-2.7432003,7.2061005,0,9.9491997C15.5352001,22.5204754,15.7910004,22.6181755,16.0468998,22.6181755z"/>
	<path d="M53.5371017,8.961875c-0.3906021-0.3906002-1.0234032-0.3906002-1.4140015,0
		c-0.3907013,0.3907003-0.3907013,1.0235004,0,1.4140997c3.8456993,3.8457003,3.8456993,10.1035004,0,13.9491997
		c-0.3907013,0.3906002-0.3907013,1.0235004,0,1.4141006c0.1953011,0.1952991,0.4510994,0.2929001,0.7070007,0.2929001
		c0.2558975,0,0.5116997-0.0976009,0.7070007-0.2929001C58.1631012,21.1132755,58.1631012,13.5878754,53.5371017,8.961875z"/>
	<path d="M58.5253983,4.1337752c-0.3905983-0.3906002-1.0233994-0.3906002-1.4139977,0
		c-0.3907013,0.3905997-0.3907013,1.0233998,0,1.4140997c6.5078011,6.5088,6.5078011,17.0986004,0,23.6064014
		c-0.3907013,0.3905983-0.3907013,1.0234985,0,1.4140987c0.1953011,0.1953011,0.4510994,0.2929001,0.7070007,0.2929001
		c0.2557983,0,0.5116997-0.097599,0.7069969-0.2929001C65.8134995,23.2812748,65.8134995,11.421875,58.5253983,4.1337752z"/>
	<path d="M11.6328001,8.961875c-0.3906002-0.3906002-1.0234003-0.3906002-1.4140005,0
		c-4.6249995,4.6260004-4.6249995,12.1514006,0,16.777401c0.1953001,0.1952991,0.4511003,0.2929001,0.7070007,0.2929001
		c0.2558994,0,0.5116997-0.0976009,0.7069998-0.2929001c0.3907003-0.3906002,0.3907003-1.0235004,0-1.4141006
		c-3.8447003-3.8456993-3.8447003-10.1034994,0-13.9491997C12.0235004,9.9853754,12.0235004,9.3525753,11.6328001,8.961875z"/>
	<path d="M6.8887,5.5478749c0.3906002-0.3906999,0.3906002-1.0235,0-1.4140997
		c-0.3906002-0.3906002-1.0233998-0.3906002-1.4141002,0c-7.2880998,7.2880998-7.2880998,19.1474991,0,26.4345989
		c0.1953001,0.1953011,0.4512,0.2929001,0.7071004,0.2929001c0.2557998,0,0.5116997-0.097599,0.7069998-0.2929001
		c0.3906002-0.3906002,0.3906002-1.0235004,0-1.4140987C0.3809,22.6464748,0.3809,12.056675,6.8887,5.5478749z"/>
	<path d="M49.6520996,58.1591759H32.8266983c0.0473022-0.1163025,0.0758018-0.2425995,0.0758018-0.3759995V25.7665749
		c3.6680984-0.4899998,6.5-3.6236,6.5-7.4258003c0-4.1420994-3.3578987-7.5-7.5-7.5s-7.5,3.3579006-7.5,7.5
		c0,3.8022003,2.8320007,6.9358006,6.5,7.4258003v32.0166016c0,0.1334,0.0286007,0.259697,0.0758991,0.3759995H14.1529999
		c-0.5527,0-1,0.4473-1,1s0.4473,1,1,1h35.4990997c0.5527,0,1-0.4473,1-1S50.2047997,58.1591759,49.6520996,58.1591759z
		 M26.4025002,18.3407745c0-3.0326996,2.4673004-5.5,5.5-5.5c3.0327988,0,5.5,2.4673004,5.5,5.5c0,3.0328007-2.4672012,5.5-5.5,5.5
		C28.8698006,23.8407745,26.4025002,21.3735752,26.4025002,18.3407745z"/>
</g>
<g>
</g>
<g>
</g>
<g>
</g>
<g>
</g>
<g>
</g>
<g>
</g>
<g>
</g>
<g>
</g>
<g>
</g>
<g>
</g>
<g>
</g>
<g>
</g>
<g>
</g>
<g>
</g>
<g>
</g>
</svg>
