<?xml version="1.0" encoding="utf-8"?>
<!-- Generator: Adobe Illustrator 19.1.0, SVG Export Plug-In . SVG Version: 6.00 Build 0)  -->
<svg version="1.1" id="Layer_1" xmlns="http://www.w3.org/2000/svg" xmlns:xlink="http://www.w3.org/1999/xlink" x="0px" y="0px"
	 viewBox="0 0 64 64" enable-background="new 0 0 64 64" xml:space="preserve">
<path id="Archivated-file" d="M56.6477013,15.7945004L41.1185989,0.293C40.9310989,0.1055,40.6618004,0,40.3967018,0L28.0007,0.0008
	L28,0H18l-0.0014992,0.0015L10.0935001,0.002C8.4445,0.002,7,1.3437999,7,2.9932001v57.8754997
	c0,0.8359032,0.4208999,1.6221008,1.0127001,2.2148018C8.6044998,63.6744003,9.4861002,64,10.3219995,64h43.5839996
	C54.700901,64,55.507,63.6904984,56.0695,63.1279984c0.5615997-0.5625,0.9305-1.309597,0.9305-2.1035995V16.5014992
	C57,16.2364006,56.8352013,15.9820004,56.6477013,15.7945004z M40.0834999,2.1155L53.9659996,16H40.0471001
	C40.1329994,7.6524,40.1371002,3.8803999,40.0834999,2.1155z M19.4668007,14c-0.1324005,0-0.2593002-0.0482998-0.3477001-0.1328001
	C19.0424004,13.7945004,19,13.7017002,19,13.6059999V2.0014999l3-0.0001998V8c0,0.5523005,0.4477005,1,1,1
	c0.5522003,0,1-0.4476995,1-1V2.0009999h3v11.6049995c0,0.0957003-0.0419998,0.1885004-0.1191998,0.2612
	C26.7924004,13.9517002,26.6655006,14,26.5331993,14H19.4668007z M55,61.0243988
	c0,0.2569008-0.1638985,0.5083008-0.3450012,0.6900024C54.4709015,61.8984985,54.1666985,62,53.9059982,62H10.3219995
	c-0.3022995,0-0.6819-0.1175995-0.8952999-0.3305016C9.2129002,61.455101,9,61.1708984,9,60.8686981V2.9932001
	c0-0.5464001,0.5395002-0.9912,1.0859003-0.9912L17,2.0014999v11.6044998c0,0.6395998,0.2700005,1.2637005,0.7411995,1.7114
	C18.2045994,15.7573996,18.8173008,16,19.4668007,16H22v5h-3c-0.5522995,0-1,0.4477997-1,1c0,0.5522995,0.4477005,1,1,1h3v6h-3
	c-0.5522995,0-1,0.4477997-1,1c0,0.5522995,0.4477005,1,1,1h3v5c0,0.5522995,0.4477005,1,1,1c0.5522003,0,1-0.4477005,1-1v-5h3
	c0.5522003,0,1-0.4477005,1-1c0-0.5522003-0.4477997-1-1-1h-3v-6h3c0.5522003,0,1-0.4477005,1-1c0-0.5522003-0.4477997-1-1-1h-3v-5
	h2.5331993c0.6494007,0,1.2622013-0.2426004,1.7251015-0.6821003C28.7294998,14.8705997,29,14.2466002,29,13.6059999V2.0007999
	L38.0429001,2c0.0489006,2.5222998,0.0214996,10.0923004-0.0304985,14.9892998
	c-0.002903,0.2670994,0.1130981,0.5244007,0.3009987,0.7138996C38.5014,17.8931007,38.7692986,18,39.0363007,18H55V61.0243988z"/>
<g>
</g>
<g>
</g>
<g>
</g>
<g>
</g>
<g>
</g>
<g>
</g>
<g>
</g>
<g>
</g>
<g>
</g>
<g>
</g>
<g>
</g>
<g>
</g>
<g>
</g>
<g>
</g>
<g>
</g>
</svg>
